<svg viewBox="0 0 41 41" fill="none" xmlns="http://www.w3.org/2000/svg">
<path fill-rule="evenodd" clip-rule="evenodd" d="M20.5 34.2931C28.1177 34.2931 34.2931 28.1177 34.2931 20.5C34.2931 12.8823 28.1177 6.7069 20.5 6.7069C12.8823 6.7069 6.7069 12.8823 6.7069 20.5C6.7069 28.1177 12.8823 34.2931 20.5 34.2931ZM20.5002 32.2241C26.9752 32.2241 32.2243 26.975 32.2243 20.5C32.2243 14.0249 26.9752 8.77584 20.5002 8.77584C14.0251 8.77584 8.77602 14.0249 8.77602 20.5C8.77602 26.975 14.0251 32.2241 20.5002 32.2241Z" fill="#15AFDF"/>
<path fill-rule="evenodd" clip-rule="evenodd" d="M20.5 40.5C31.5457 40.5 40.5 31.5457 40.5 20.5C40.5 9.4543 31.5457 0.5 20.5 0.5C9.4543 0.5 0.5 9.4543 0.5 20.5C0.5 31.5457 9.4543 40.5 20.5 40.5ZM20.5002 37.5C29.889 37.5 37.5002 29.8888 37.5002 20.5C37.5002 11.1111 29.889 3.49997 20.5002 3.49997C11.1113 3.49997 3.50016 11.1111 3.50016 20.5C3.50016 29.8888 11.1113 37.5 20.5002 37.5Z" fill="#15AFDF"/>
<path d="M19.4655 13.2586C19.4655 12.6873 19.9287 12.2241 20.5 12.2241C21.0713 12.2241 21.5345 12.6873 21.5345 13.2586V20.8448C21.5345 21.4162 21.0713 21.8793 20.5 21.8793C19.9287 21.8793 19.4655 21.4162 19.4655 20.8448V13.2586Z" fill="#15AFDF"/>
<path d="M19.8522 21.9211C19.4482 21.5172 19.4482 20.8622 19.8522 20.4582C20.2562 20.0542 20.9112 20.0542 21.3152 20.4582L25.7041 24.8471C26.1081 25.2511 26.1081 25.9061 25.7041 26.3101C25.3001 26.7141 24.6451 26.7141 24.2411 26.3101L19.8522 21.9211Z" fill="#15AFDF"/>
<path d="M18.2318 7.48438C17.8057 6.24142 18.7293 4.9483 20.0433 4.9483H21.247C22.561 4.9483 23.4847 6.24142 23.0585 7.48438C22.7931 8.25841 22.0653 8.7783 21.247 8.7783H20.0433C19.225 8.7783 18.4972 8.25841 18.2318 7.48438Z" fill="#15AFDF"/>
</svg>
