<svg viewBox="0 0 41 41" fill="none" xmlns="http://www.w3.org/2000/svg">
<path fill-rule="evenodd" clip-rule="evenodd" d="M29.2916 18.5834H27.9166V14.9167C27.9166 13.9084 27.0916 13.0834 26.0833 13.0834H22.4166V11.7084C22.4166 10.4434 21.3899 9.41669 20.1249 9.41669C18.8599 9.41669 17.8333 10.4434 17.8333 11.7084V13.0834H14.1666C13.1583 13.0834 12.3424 13.9084 12.3424 14.9167V18.4H13.7083C15.0741 18.4 16.1833 19.5092 16.1833 20.875C16.1833 22.2409 15.0741 23.35 13.7083 23.35H12.3333V26.8334C12.3333 27.8417 13.1583 28.6667 14.1666 28.6667H17.6499V27.2917C17.6499 25.9259 18.7591 24.8167 20.1249 24.8167C21.4908 24.8167 22.5999 25.9259 22.5999 27.2917V28.6667H26.0833C27.0916 28.6667 27.9166 27.8417 27.9166 26.8334V23.1667H29.2916C30.5566 23.1667 31.5833 22.14 31.5833 20.875C31.5833 19.61 30.5566 18.5834 29.2916 18.5834Z" fill="#FCB33A"/>
<path fill-rule="evenodd" clip-rule="evenodd" d="M20.5 40.5C31.5457 40.5 40.5 31.5457 40.5 20.5C40.5 9.4543 31.5457 0.5 20.5 0.5C9.4543 0.5 0.5 9.4543 0.5 20.5C0.5 31.5457 9.4543 40.5 20.5 40.5ZM20.5002 37.5C29.889 37.5 37.5002 29.8888 37.5002 20.5C37.5002 11.1111 29.889 3.49997 20.5002 3.49997C11.1113 3.49997 3.50016 11.1111 3.50016 20.5C3.50016 29.8888 11.1113 37.5 20.5002 37.5Z" fill="#FCB33A"/>
</svg>
