<svg viewBox="0 0 41 41" fill="none" xmlns="http://www.w3.org/2000/svg">
<path fill-rule="evenodd" clip-rule="evenodd" d="M20.5 40.5C31.5457 40.5 40.5 31.5457 40.5 20.5C40.5 9.4543 31.5457 0.5 20.5 0.5C9.4543 0.5 0.5 9.4543 0.5 20.5C0.5 31.5457 9.4543 40.5 20.5 40.5ZM20.5002 37.5C29.889 37.5 37.5002 29.8888 37.5002 20.5C37.5002 11.1111 29.889 3.49997 20.5002 3.49997C11.1113 3.49997 3.50016 11.1111 3.50016 20.5C3.50016 29.8888 11.1113 37.5 20.5002 37.5Z" fill="#0EABB3"/>
<path d="M13.0697 10.4266C15.011 8.56286 17.3509 7.5 20.5 7.5C23.6491 7.5 25.989 8.56286 27.9303 10.4266C28.5689 11.0397 28.0217 12.0223 27.1432 11.9132L21.9212 11.2647C21.9212 11.2647 23.3754 15.5 20.5 15.5C17.6246 15.5 19.0788 11.2647 19.0788 11.2647L13.8568 11.9132C12.9783 12.0223 12.4311 11.0397 13.0697 10.4266Z" fill="#0EABB3"/>
<path d="M13.0697 30.5734C15.011 32.4371 17.3509 33.5 20.5 33.5C23.6491 33.5 25.989 32.4371 27.9303 30.5734C28.5689 29.9603 28.0217 28.9777 27.1432 29.0868L21.9212 29.7353C21.9212 29.7353 23.3754 25.5 20.5 25.5C17.6246 25.5 19.0788 29.7353 19.0788 29.7353L13.8568 29.0868C12.9783 28.9777 12.4311 29.9603 13.0697 30.5734Z" fill="#0EABB3"/>
<path d="M30.5734 27.9303C32.4371 25.989 33.5 23.6491 33.5 20.5C33.5 17.3509 32.4371 15.011 30.5734 13.0697C29.9603 12.4311 28.9777 12.9783 29.0868 13.8568L29.7353 19.0788C29.7353 19.0788 25.5 17.6246 25.5 20.5C25.5 23.3754 29.7353 21.9212 29.7353 21.9212L29.0868 27.1432C28.9777 28.0217 29.9603 28.5689 30.5734 27.9303Z" fill="#0EABB3"/>
<path d="M10.4266 27.9303C8.56286 25.989 7.5 23.6491 7.5 20.5C7.5 17.3509 8.56286 15.011 10.4266 13.0697C11.0397 12.4311 12.0223 12.9783 11.9132 13.8568L11.2647 19.0788C11.2647 19.0788 15.5 17.6246 15.5 20.5C15.5 23.3754 11.2647 21.9212 11.2647 21.9212L11.9132 27.1432C12.0223 28.0217 11.0397 28.5689 10.4266 27.9303Z" fill="#0EABB3"/>
</svg>
