<svg version="1.1" id="Слой_1" xmlns="http://www.w3.org/2000/svg" xmlns:xlink="http://www.w3.org/1999/xlink" x="0px" y="0px"
	 viewBox="0 0 3100 2828" style="enable-background:new 0 0 3100 2828;" xml:space="preserve">
<style type="text/css">
	.st0{clip-path:url(#SVGID_2_);fill: transparent;}
	.st1{fill:#63C0C4;}
	.st2{fill:#FFFFFF;}
	.st3{fill:#01888B;}
	.st4{fill:#00666B;}
	.st5{fill:#212B53;}
	.st6{fill:#053C5E;}
	.st7{fill:#F7B58E;}
	.st8{fill:#F39F85;}
	.st9{fill:#12375A;}
	.st10{fill:#FFD147;}
	.st11{fill:#AFD8C7;}
	.st12{clip-path:url(#SVGID_4_);fill:url(#SVGID_5_);}
	.st13{clip-path:url(#SVGID_7_);fill:url(#SVGID_8_);}
	.st14{clip-path:url(#SVGID_10_);fill:url(#SVGID_11_);}
	.st15{clip-path:url(#SVGID_13_);fill:url(#SVGID_14_);}
	.st16{fill:#F49B42;}
	.st17{fill:#E7365E;}
	.st18{fill:#F59E11;}
	.st19{clip-path:url(#SVGID_16_);fill:url(#SVGID_17_);}
	.st20{clip-path:url(#SVGID_19_);fill:url(#SVGID_20_);}
</style>
<g>
	<defs>
		<rect id="SVGID_1_" x="0.06" y="0.41" width="3098.98" height="2827.59"/>
	</defs>
	<clipPath id="SVGID_2_">
		<use xlink:href="#SVGID_1_"  style="overflow:visible;"/>
	</clipPath>
	<rect x="0.06" y="0.41" class="st0" width="3098.98" height="2827.59"/>
</g>
<path class="st1" d="M1394.1,2245.49c0,0-96.88-253.23-286.04-278.01c-137.09,183.97,44.85,368.04,44.85,368.04l218.65,91.69
	L1394.1,2245.49"/>
<path class="st2" d="M1290,2075.54l-54.5,107.17l-122.98-214.56c-1.49-0.22-2.96-0.47-4.46-0.67c-0.54,0.73-1.03,1.45-1.56,2.17
	l65.86,114.92l-109.43-22.35c-0.24,1.03-0.45,2.06-0.67,3.09l-0.56,2.75l114.62,23.4l109.76,191.5l-193.31-33.09
	c1.17,2.25,2.35,4.48,3.54,6.66l193.62,33.15l77.94,135.98l3.69,1.55l0.73-5.85l-133.24-232.46l55.17-108.5
	C1292.83,2078.78,1291.42,2077.16,1290,2075.54"/>
<path class="st3" d="M1329.35,2357.9c0,0-188.3-125.5-312.65-38.11c17.96,309.83,413.34,308.86,413.34,308.86L1329.35,2357.9"/>
<path class="st4" d="M1016.7,2319.79c0.07,1.2,0.16,2.37,0.24,3.56l267.35,149.84l-154.56,62.78c1.86,1.41,3.73,2.79,5.61,4.16
	l155.62-63.21l104.42,58.53l-3.22-8.65l-203.3-113.95l-35.03-121.9c-2.13-0.27-4.27-0.51-6.42-0.73l34.04,118.48l-161.97-90.78
	C1018.56,2318.55,1017.62,2319.14,1016.7,2319.79"/>
<path class="st5" d="M2386.48,2330.56L501.63,1031.19c-12.92-8.91-16.2-26.76-7.3-39.68c8.91-12.92,26.76-16.2,39.68-7.3
	l1884.84,1299.37c12.92,8.91,16.2,26.77,7.3,39.68C2417.25,2336.18,2399.4,2339.47,2386.48,2330.56"/>
<path class="st6" d="M1568.68,2666.85h-216.86c-4.31,0-7.84-3.53-7.84-7.84V1629.84c0-63.94,52.32-116.26,116.27-116.26
	c63.94,0,116.26,52.32,116.26,116.26v1029.17C1576.51,2663.32,1572.99,2666.85,1568.68,2666.85"/>
<path class="st2" d="M1430.04,1657.39c0,18.39,14.91,33.3,33.31,33.3c18.39,0,33.3-14.91,33.3-33.3c0-18.4-14.91-33.31-33.3-33.31
	C1444.95,1624.08,1430.04,1638.99,1430.04,1657.39"/>
<path class="st5" d="M1998.1,2481.42c0,0,5.95,12.53,3.93,34.95c-0.44,4.94-4.06,9.03,4.36,12.34c3.69-9.39,9.61-24.39,9.61-24.39
	l3.94-21.88l4.04,1.59l4.32-10.96c0,0-19.45-11.18-24.62-5.83C2001.35,2473.17,1998.1,2481.42,1998.1,2481.42"/>
<path class="st7" d="M1983.75,2474.34l14.35,7.08c4.77-2.74,7.04-7.91,5.8-13.22l-0.22-0.96l-13.04-10.39L1983.75,2474.34"/>
<path class="st5" d="M1924.54,2247.77c0,0-3.12,38.21-27.41,85.24c-6.52,12.63,2.48,41.96,16.47,50.29
	c42.74,25.45,83.46,75.05,83.46,75.05l-7.97,20.22c0,0-134.04-73.72-156.6-102.78c-22.57-29.06,5.62-141.42,5.62-141.42
	L1924.54,2247.77"/>
<polyline class="st7" points="1890.68,2057.43 1849.52,2027.22 1851.55,1926.56 1838.9,1919.08 1813.32,2047.69 1847.99,2077.15 
	1890.68,2057.43 "/>
<path class="st7" d="M1838.9,1919.08l2.95-13.88c-1.09-7.4-8.6-11.81,0.55-16.86c0,0,12.53,2.08,19.77,13.46
	c5.43,8.54,5.41,9.87,1.69,14.82c-3.21,4.27-7.45,7.71-12.31,9.94L1838.9,1919.08"/>
<path class="st7" d="M1923.04,1954.71l-2.04,100.66l36.16,26.54c-4.31,3.6-8.39,7.48-12.18,11.61l-25.5,11.78l-34.67-29.45
	l25.57-128.62L1923.04,1954.71"/>
<path class="st7" d="M1910.38,1947.23l2.95-13.88c-1.09-7.4-8.59-11.81,0.56-16.86c0,0,12.52,2.08,19.76,13.46
	c5.44,8.54,5.41,9.88,1.69,14.83c-3.21,4.26-7.45,7.7-12.3,9.93L1910.38,1947.23"/>
<path class="st5" d="M1726.09,2507c0,0-13.08,5.11-37.11,2.08c-5.29-0.67-9.83-4.35-12.95,3.58c10.2,4.02,26.5,10.44,26.5,10.44
	l23.55,4.87l-1.51,3.81l11.91,4.69c0,0,10.98-18.17,5.01-23.4C1735.05,2510.53,1726.09,2507,1726.09,2507"/>
<path class="st7" d="M1733.94,2493.94l-7.85,13.06c3.16,4.72,8.79,7.16,14.39,6.23l1.01-0.16l4.32-14.45L1733.94,2493.94"/>
<path class="st7" d="M1977.98,2009.57l25.71,36.17l-21.44,23.13c-0.31,0.33-0.65,0.6-0.97,0.91c-0.74-0.34-1.48-0.69-2.25-0.99
	c-0.12-0.05-0.25-0.09-0.38-0.13c-0.12-0.05-0.23-0.11-0.35-0.16c-9.26-3.65-19.46-1.09-27.31,4.68
	c-5.44-2.63-10.46-6.18-14.66-10.67c-2.86-3.06-5.14-6.25-5.4-8.85C1934.86,2032.82,1977.98,2009.57,1977.98,2009.57"/>
<polyline class="st8" points="1960.29,2076.86 1955.88,2096.93 1929.15,2086.4 1936.33,2062.51 1960.29,2076.86 "/>
<path class="st9" d="M1950.58,2073.04l15.21-14.82l-3.97-5.4c-2.93-3.98-2.74-9.46,0.46-13.23l12.47-14.7c0,0-12.79-1.89-6.26-17.03
	c3.11-7.89,13.99-3.66,13.99-3.66s23.14,13.97,25.64,31.11c1.69,11.53-6.48,25.34-15.53,34.55c-8.1,8.25-21.02,9.56-32.3,7
	L1950.58,2073.04"/>
<path class="st7" d="M1973.47,2051.55c-0.15,3.22-3.59,6.2-7.68,6.67c-4.09,0.46-7.28-1.77-7.13-4.99s3.59-6.21,7.68-6.67
	C1970.43,2046.09,1973.62,2048.33,1973.47,2051.55"/>
<path class="st3" d="M1840.51,2218.77l83.83,33.01l42.35-107.54c9.27-23.56-0.9-50.3-23.5-61.73l-55.51-30.01
	c0,0-10.99,7.79-39.69,24.65c17.37,23.22,41.37,40.22,41.37,40.22L1840.51,2218.77"/>
<path class="st9" d="M1924.34,2251.78c0,0-31.51,45.28-94.11,76.1c-10.15,4.38-24.44,20.27-31.35,42.19l-51.31,136.77l-19.56-7.7
	c0,0,12.88-135.49,43.36-192.77c30.48-57.29,69.14-87.6,69.14-87.6L1924.34,2251.78"/>
<path class="st9" d="M2677.08,2644.29l-45.85-0.05c-6.08,0.64-12.89,2.37-14.02,7.64c0,0-0.8,3.51-0.67,6.99
	c1.62,1.91,62.42-0.25,62.42-0.25l0.26-0.22C2685.66,2650.65,2677.08,2644.29,2677.08,2644.29"/>
<polyline class="st5" points="2616.54,2658.87 2678.96,2658.62 2678.42,2661.04 2616.45,2661.04 2616.54,2658.87 "/>
<polyline class="st2" points="2658.93,2644.24 2654.81,2644.27 2656.09,2649.89 2660.09,2649.89 2658.93,2644.24 "/>
<polyline class="st2" points="2650.08,2644.24 2645.95,2644.27 2647.24,2649.89 2651.24,2649.89 2650.08,2644.24 "/>
<path class="st7" d="M2680.23,2629.02l-3.15,15.27c-3.68,1.87-8.46,1.98-12.29,0.29l-0.7-0.3l-2.2-15.26H2680.23"/>
<path class="st5" d="M2784.23,2644.29l-45.85-0.05c-6.08,0.64-12.88,2.37-14.02,7.64c0,0-0.8,3.51-0.67,6.99
	c1.63,1.91,62.42-0.25,62.42-0.25l0.26-0.22C2792.81,2650.65,2784.23,2644.29,2784.23,2644.29"/>
<polyline class="st5" points="2723.69,2658.87 2786.11,2658.62 2785.57,2661.04 2723.6,2661.04 2723.69,2658.87 "/>
<polyline class="st2" points="2766.08,2644.24 2761.96,2644.27 2763.24,2649.89 2767.25,2649.89 2766.08,2644.24 "/>
<polyline class="st2" points="2757.23,2644.24 2753.1,2644.27 2754.39,2649.89 2758.39,2649.89 2757.23,2644.24 "/>
<path class="st7" d="M2782.24,2629.02l1.99,15.27c-3.68,1.87-8.46,1.98-12.29,0.29l-0.69-0.3l-7.35-15.26H2782.24"/>
<path class="st7" d="M2713.83,2115.48l37.75,24.62l-11.65,29.83c-0.17,0.42-0.39,0.81-0.58,1.23c-0.82-0.06-1.65-0.11-2.49-0.11
	c-0.14,0-0.27,0.02-0.41,0.02c-0.13,0-0.26-0.02-0.39-0.02c-10.11,0-18.8,6.22-24.07,14.59c-6.11-0.46-12.19-1.94-17.82-4.62
	c-3.84-1.83-7.19-4-8.4-6.36C2681.73,2153.5,2713.83,2115.48,2713.83,2115.48"/>
<path class="st7" d="M2665.8,2123.2c0,0-4.62,43.82,4.69,71.72c-4.33,3.76-20.19,20.76-25.18-1.28c-4.99-22.05,5.6-78.16,5.6-78.16
	L2665.8,2123.2"/>
<polyline class="st5" points="2688.46,2120.09 2697.34,2125.81 2694.17,2132.44 2684.64,2128.24 2688.46,2120.09 "/>
<path class="st5" d="M2693.69,2128.07c-0.89,2.03-0.96,3.96-0.15,4.31c0.82,0.36,2.2-0.99,3.09-3.02c0.88-2.03,0.95-3.96,0.14-4.32
	C2695.96,2124.69,2694.58,2126.04,2693.69,2128.07"/>
<path class="st6" d="M2581.27,2087.77c0-0.08-0.02-0.16-0.03-0.25c1.67-3.8,4.62-9.85,8.59-15.41c6.42-8.99,8.25-13.48,8.25-13.48
	l91.73,60.03l-5.94,11.21l-102.61-37.92C2581.36,2090.55,2581.39,2089.16,2581.27,2087.77"/>
<polyline class="st8" points="2722.16,2185.66 2725.46,2206.26 2696.27,2206.26 2694.17,2181.02 2722.16,2185.66 "/>
<path class="st7" d="M2646.78,2236.78c0,0-34.48-10.98-45.28-25.74c-10.81-14.77,7.47-95.56,7.47-95.56l-2.36-14.54
	c-1.33-8.19,4.95-15.63,13.24-15.71l9.21-0.08c3.84-0.03,6.42,3.91,4.87,7.41l-12.12,27.26c0,0-9.09,61.2,3.64,65.84
	c15.19,5.41,32.38,6.71,32.38,6.71L2646.78,2236.78"/>
<path class="st9" d="M2711.55,2185.66l8.86-19.67l-5.76-3.62c-4.25-2.67-6.11-7.92-4.49-12.67l6.31-18.54c0,0-17.96-2.2-17.42-18.94
	c0-8.61,11.86-8.66,11.86-8.66s3.54,7.7,14.55,8.61c4.72-0.59,17.68,1.15,26.43,16.42c5.89,10.27,3.31,26.36-1.81,38.43
	c-4.59,10.81-16.31,16.86-27.92,18.64H2711.55"/>
<path class="st5" d="M2746.6,2350.89c0,0-1.83,41.93-10.9,87.39c-2.67,13.39-1.67,27.25,2.69,40.19
	c20.59,61.16,49.45,153.12,49.45,153.12h-25.68c0,0-58.16-108.69-73.16-162.6c-14.98-53.92-17.55-71.04-17.55-71.04l17.84-47.06
	H2746.6"/>
<path class="st7" d="M2725.18,2156.83c1.06,3.1-1.07,7.2-4.77,9.16c-3.69,1.96-7.54,1.04-8.59-2.06c-1.06-3.1,1.08-7.2,4.77-9.16
	C2720.28,2152.81,2724.13,2153.73,2725.18,2156.83"/>
<path class="st10" d="M2662.89,2350.89h83.71v-107.4c0-23.53-17.91-43.19-41.33-45.37l-58.21-7.05c0,0-6.85,10.48-25.92,34.82
	c22.92,14.17,49.45,20.69,49.45,20.69L2662.89,2350.89"/>
<path class="st6" d="M2746.6,2350.89c0,0-11.82,42.79-55.45,90.75c-7.28,7.24-17.77,22.3-16.28,43.61l9,146.34h-26.04
	c0,0-31.74-121.52-24.89-181.43c6.84-59.91,29.95-99.27,29.95-99.27H2746.6"/>
<path class="st1" d="M2595.32,2077.82c-4.5,9.34-10.61,15.73-13.64,14.27c-3.04-1.47-1.85-10.22,2.66-19.56
	c4.5-9.34,10.61-15.73,13.64-14.27C2601.02,2059.72,2599.82,2068.48,2595.32,2077.82"/>
<path class="st7" d="M2669.42,2105.32l-0.78,0.37c-2.73,1.31-5.86,1.51-8.73,0.55l-0.52-0.17c-4.72-1.58-8.41-5.32-9.92-10.07
	c-0.67-2.11,1.18-4.16,3.35-3.71l5.8,1.22c2.25,0.48,4.23,1.82,5.5,3.75L2669.42,2105.32"/>
<polyline class="st11" points="463.44,1656.35 446.6,1689.47 481.96,1681.4 602.96,1643.28 463.44,1656.35 "/>
<polyline class="st1" points="446.6,1689.47 506.68,1685.74 491.96,1678.25 446.6,1689.47 "/>
<g>
	<defs>
		<polyline id="SVGID_3_" points="463.44,1656.35 452.92,1624.08 602.96,1643.28 463.44,1656.35 		"/>
	</defs>
	<clipPath id="SVGID_4_">
		<use xlink:href="#SVGID_3_"  style="overflow:visible;"/>
	</clipPath>
	
		<linearGradient id="SVGID_5_" gradientUnits="userSpaceOnUse" x1="-6.915704e-06" y1="2828" x2="1" y2="2828" gradientTransform="matrix(-150.035 0 0 -150.035 602.957 425939.1875)">
		<stop  offset="0" style="stop-color:#F1F8F7"/>
		<stop  offset="1.000000e-06" style="stop-color:#F1F8F7"/>
		<stop  offset="1" style="stop-color:#BFE3EE"/>
	</linearGradient>
	<rect x="452.92" y="1624.08" class="st12" width="150.04" height="32.27"/>
</g>
<g>
	<defs>
		<polyline id="SVGID_6_" points="602.96,1643.28 481.96,1681.4 500,1727.91 602.96,1643.28 		"/>
	</defs>
	<clipPath id="SVGID_7_">
		<use xlink:href="#SVGID_6_"  style="overflow:visible;"/>
	</clipPath>
	
		<linearGradient id="SVGID_8_" gradientUnits="userSpaceOnUse" x1="-8.071232e-06" y1="2828" x2="1" y2="2828" gradientTransform="matrix(-120.993 0 0 -120.993 602.957 343853.7812)">
		<stop  offset="0" style="stop-color:#F1F8F7"/>
		<stop  offset="1.000000e-06" style="stop-color:#F1F8F7"/>
		<stop  offset="1" style="stop-color:#BFE3EE"/>
	</linearGradient>
	<rect x="481.96" y="1643.28" class="st13" width="120.99" height="84.63"/>
</g>
<path class="st1" d="M459.86,1722.8c-0.32-0.16-0.6-0.38-0.85-0.66c-1.03-1.18-0.9-2.96,0.28-3.99c3.71-3.23,7.72-6.12,11.89-8.57
	c1.35-0.8,3.08-0.34,3.87,1.01c0.79,1.34,0.34,3.08-1.01,3.87c-3.88,2.27-7.59,4.95-11.04,7.96
	C462.1,1723.19,460.86,1723.31,459.86,1722.8"/>
<path class="st1" d="M500.12,2032.77c-0.05-0.03-0.11-0.05-0.16-0.09c-8.18-4.82-15.65-11.3-22.21-19.23
	c-0.99-1.2-0.82-2.98,0.38-3.98c1.2-1,2.98-0.81,3.98,0.38c6.14,7.42,13.12,13.47,20.73,17.97c1.35,0.79,1.79,2.52,1,3.87
	C503.07,2032.98,501.44,2033.44,500.12,2032.77 M468.95,2000.06c-0.48-0.24-0.89-0.62-1.17-1.12c-4.84-8.52-8.48-17.66-10.83-27.16
	c-0.38-1.52,0.55-3.05,2.07-3.43c1.51-0.37,3.05,0.55,3.42,2.07c2.22,9,5.67,17.66,10.25,25.73c0.77,1.35,0.3,3.08-1.06,3.85
	C470.77,2000.48,469.77,2000.47,468.95,2000.06z M455.76,1956.72c-0.86-0.44-1.47-1.29-1.54-2.32l-0.08-1.37
	c-0.47-8.99,0.01-18.31,1.45-27.72c0.24-1.55,1.68-2.61,3.22-2.37c1.54,0.22,2.6,1.68,2.37,3.22c-1.38,9.03-1.85,17.97-1.39,26.56
	l0.08,1.28c0.11,1.55-1.06,2.9-2.62,3.02C456.71,1957.05,456.2,1956.94,455.76,1956.72z M460.6,1911.5
	c-1.16-0.59-1.8-1.92-1.45-3.24c2.32-8.76,5.49-17.96,9.43-27.35c0.6-1.44,2.26-2.11,3.7-1.51c1.39,0.56,2.12,2.26,1.51,3.7
	c-3.83,9.14-6.92,18.09-9.18,26.61c-0.4,1.51-1.94,2.41-3.45,2.01C460.96,1911.66,460.77,1911.59,460.6,1911.5z M477.01,1868.94
	c-1.38-0.7-1.94-2.37-1.26-3.76c0.31-0.62,0.61-1.24,0.92-1.86c-4.3-1.99-8.45-4.31-12.34-6.9c-1.3-0.87-1.65-2.62-0.78-3.92
	c0.87-1.3,2.62-1.67,3.92-0.78c3.7,2.47,7.66,4.68,11.77,6.56c3.03-5.83,6.37-11.87,10.16-18.39c0.78-1.35,2.53-1.8,3.86-1.02
	c1.35,0.78,1.81,2.51,1.02,3.86c-3.65,6.29-6.89,12.13-9.82,17.75c2.64,1.01,5.33,1.9,8.06,2.66c1.53,0.44,2.39,1.98,1.97,3.48
	c-0.42,1.5-1.98,2.38-3.48,1.97c-3.1-0.86-6.15-1.88-9.14-3.05c-0.36,0.71-0.71,1.42-1.06,2.13c-0.69,1.4-2.38,1.98-3.78,1.29
	C477.03,1868.96,477.02,1868.95,477.01,1868.94z M451.47,1845.67c-0.27-0.13-0.52-0.31-0.74-0.54c-4.31-4.43-8.05-9.29-11.12-14.47
	c-1.92-3.22-3.62-6.63-5.05-10.14c-0.59-1.45,0.1-3.1,1.54-3.69c1.45-0.6,3.1,0.1,3.69,1.54c1.34,3.25,2.91,6.42,4.69,9.41
	c2.85,4.79,6.32,9.3,10.31,13.4c1.09,1.12,1.07,2.91-0.05,4C453.83,1846.04,452.51,1846.21,451.47,1845.67z M507.34,1871.42
	c-0.99-0.51-1.64-1.58-1.54-2.76c0.13-1.55,1.5-2.71,3.06-2.58c9.42,0.81,18.64,0.09,27.4-2.13c1.51-0.39,3.05,0.53,3.43,2.05
	c0.38,1.51-0.53,3.05-2.05,3.43c-9.37,2.38-19.22,3.14-29.27,2.29C508.01,1871.68,507.65,1871.58,507.34,1871.42z M431.16,1805.53
	c-0.76-0.38-1.35-1.12-1.5-2.03c-1.67-9.53-1.76-19.4-0.28-29.33c0.23-1.54,1.67-2.61,3.21-2.38c1.55,0.23,2.61,1.67,2.38,3.21
	c-1.4,9.34-1.31,18.6,0.26,27.53c0.27,1.53-0.76,3-2.3,3.27C432.3,1805.91,431.69,1805.8,431.16,1805.53z M551.67,1863.2
	c-0.51-0.26-0.95-0.68-1.23-1.23c-0.71-1.39-0.16-3.09,1.23-3.8c2.11-1.09,4.18-2.28,6.13-3.55c5.56-3.61,10.56-8.39,14.47-13.83
	c0.91-1.26,2.68-1.55,3.94-0.64c1.27,0.91,1.56,2.68,0.65,3.94c-4.31,6-9.84,11.28-15.97,15.27c-2.11,1.37-4.35,2.67-6.64,3.84
	C553.4,1863.63,552.45,1863.6,551.67,1863.2z M499.45,1829.18c-0.08-0.05-0.17-0.1-0.25-0.15c-1.31-0.84-1.69-2.59-0.85-3.91
	c6.36-9.85,12.21-17.06,18.43-22.67c1.16-1.04,2.95-0.95,3.99,0.21c1.05,1.15,0.96,2.94-0.21,3.99
	c-5.84,5.26-11.38,12.11-17.46,21.54C502.31,1829.42,500.73,1829.83,499.45,1829.18z M434.95,1760.48
	c-1.24-0.62-1.85-2.08-1.39-3.43c1.45-4.23,3.21-8.38,5.22-12.34c2.44-4.79,5.29-9.37,8.47-13.59c0.94-1.25,2.7-1.51,3.96-0.56
	c1.25,0.94,1.5,2.71,0.56,3.96c-2.98,3.96-5.66,8.25-7.95,12.75c-1.89,3.73-3.55,7.63-4.91,11.61c-0.51,1.48-2.11,2.27-3.59,1.76
	C435.18,1760.6,435.06,1760.54,434.95,1760.48z M580.64,1829.6c-1.15-0.58-1.78-1.9-1.46-3.2c1.69-6.76,1.07-13-1.84-18.54
	c-1.03-1.95-2.33-3.74-3.88-5.33c-1.09-1.12-1.06-2.91,0.06-4c1.12-1.08,2.91-1.06,4,0.06c1.92,1.98,3.55,4.21,4.82,6.64
	c3.52,6.71,4.32,14.51,2.32,22.54c-0.38,1.51-1.91,2.44-3.43,2.06C581.03,1829.77,580.83,1829.7,580.64,1829.6z M531.52,1797.5
	c-0.55-0.28-1.01-0.74-1.28-1.33c-0.65-1.42-0.04-3.1,1.38-3.75c9.2-4.24,20.05-5.27,29.78-2.81c1.5,0.39,2.43,1.92,2.05,3.44
	c-0.38,1.51-1.92,2.43-3.43,2.04c-8.37-2.11-18.1-1.2-26.03,2.46C533.17,1797.92,532.27,1797.88,531.52,1797.5z"/>
<path class="st1" d="M516.07,2039.68c-1.18-0.6-1.81-1.98-1.43-3.3c0.43-1.5,1.99-2.37,3.49-1.94c4.34,1.24,8.81,1.99,13.29,2.24
	c1.56,0.08,2.76,1.42,2.67,2.97c-0.09,1.56-1.42,2.76-2.98,2.67c-4.9-0.27-9.79-1.09-14.53-2.44
	C516.4,2039.83,516.23,2039.76,516.07,2039.68"/>
<g>
	<defs>
		<polyline id="SVGID_9_" points="1423.87,1176.17 1526.02,1130.88 1576.64,1125.27 1613.76,1134.08 1423.87,1176.17 		"/>
	</defs>
	<clipPath id="SVGID_10_">
		<use xlink:href="#SVGID_9_"  style="overflow:visible;"/>
	</clipPath>
	
		<linearGradient id="SVGID_11_" gradientUnits="userSpaceOnUse" x1="0" y1="2828.0088" x2="1" y2="2828.0088" gradientTransform="matrix(-184.807 -16.121 16.121 -184.807 -43978.7305 523794.625)">
		<stop  offset="0" style="stop-color:#F1F8F7"/>
		<stop  offset="1.000000e-06" style="stop-color:#F1F8F7"/>
		<stop  offset="1" style="stop-color:#BFE3EE"/>
	</linearGradient>
	<polygon class="st14" points="1618.17,1125.65 1425.3,1108.83 1419.46,1175.79 1612.33,1192.61 	"/>
</g>
<polyline class="st11" points="1423.87,1176.17 1610.46,1145.18 1613.76,1134.08 "/>
<polyline class="st1" points="1612.93,1176.94 1612.67,1177.3 1602.54,1204.96 1424.33,1176.22 1612.93,1176.94 "/>
<g>
	<defs>
		<polyline id="SVGID_12_" points="1649.23,1163.38 1625.04,1139.97 1425.08,1175.97 1593.66,1185.64 1649.23,1163.38 		"/>
	</defs>
	<clipPath id="SVGID_13_">
		<use xlink:href="#SVGID_12_"  style="overflow:visible;"/>
	</clipPath>
	
		<linearGradient id="SVGID_14_" gradientUnits="userSpaceOnUse" x1="0" y1="2827.9832" x2="1" y2="2827.9832" gradientTransform="matrix(-221.365 -19.31 19.31 -221.365 -52959.918 627189)">
		<stop  offset="0" style="stop-color:#F1F8F7"/>
		<stop  offset="1.000000e-06" style="stop-color:#F1F8F7"/>
		<stop  offset="1" style="stop-color:#BFE3EE"/>
	</linearGradient>
	<polygon class="st15" points="1653.18,1140.31 1426.77,1120.56 1421.13,1185.3 1647.54,1205.05 	"/>
</g>
<path class="st1" d="M2028.18,1560.75c-5.78-2.61-11.46-5.7-16.89-9.15c-1.24-0.78-2.88-0.41-3.67,0.82
	c-0.79,1.24-0.42,2.89,0.82,3.68c5.63,3.58,11.54,6.78,17.55,9.5c2.17,0.99,4.36,1.92,6.57,2.8c0.81,0.33,1.69,0.22,2.38-0.2
	c0.47-0.29,0.86-0.73,1.08-1.29c0.55-1.36-0.12-2.91-1.49-3.45C2032.4,1562.61,2030.28,1561.7,2028.18,1560.75"/>
<path class="st1" d="M1704.28,1148.27c-8.37,0.34-17.1,0.95-26.7,1.87c-1.46,0.14-2.52,1.44-2.39,2.9c0.14,1.47,1.44,2.54,2.9,2.4
	c9.5-0.91,18.14-1.52,26.4-1.85c0.47-0.02,0.91-0.16,1.29-0.39c0.79-0.49,1.31-1.38,1.27-2.38
	C1706.99,1149.35,1705.75,1148.21,1704.28,1148.27"/>
<path class="st1" d="M1748.32,1154.16c0.69-0.42,1.18-1.15,1.26-2.02c0.14-1.46-0.93-2.76-2.4-2.9c-8.49-0.82-17.52-1.25-26.82-1.28
	c-1.47-0.01-2.67,1.18-2.66,2.65c-0.01,1.47,1.18,2.67,2.65,2.67c9.13,0.03,17.99,0.46,26.33,1.26
	C1747.27,1154.6,1747.84,1154.45,1748.32,1154.16"/>
<path class="st1" d="M1979.81,1524.33c-0.95-1.12-2.63-1.28-3.75-0.28c-1.11,0.96-1.24,2.64-0.28,3.75
	c5.88,6.84,12.42,13.17,19.45,18.82c0.89,0.73,2.13,0.77,3.06,0.2c0.25-0.16,0.48-0.35,0.68-0.6c0.92-1.15,0.74-2.82-0.41-3.74
	C1991.79,1537.03,1985.49,1530.92,1979.81,1524.33"/>
<path class="st1" d="M1969.56,1515.61c1.22-0.83,1.52-2.49,0.69-3.7c-1.33-1.96-2.63-3.95-3.87-5.97
	c-3.32-5.42-6.28-11.08-8.79-16.82c-0.59-1.35-2.16-1.96-3.51-1.37c-1.31,0.58-1.96,2.16-1.37,3.5c2.61,5.97,5.68,11.85,9.13,17.47
	c1.29,2.1,2.63,4.17,4.02,6.2c0.81,1.17,2.39,1.5,3.59,0.76C1969.49,1515.66,1969.53,1515.64,1969.56,1515.61"/>
<path class="st1" d="M1950.38,1477.77c0.21-0.07,0.41-0.16,0.59-0.27c1.02-0.63,1.52-1.88,1.15-3.07
	c-2.48-7.92-4.41-16.27-5.9-25.52c-0.24-1.45-1.6-2.44-3.05-2.2c-1.44,0.23-2.44,1.6-2.21,3.05c1.53,9.5,3.52,18.1,6.08,26.26
	C1947.48,1477.43,1948.97,1478.21,1950.38,1477.77"/>
<path class="st1" d="M1899.81,1245.41c1.97,2.88,3.88,5.82,5.7,8.8c2.76,4.49,5.37,9.12,7.74,13.76c0.67,1.31,2.28,1.82,3.58,1.16
	c0.06-0.04,0.12-0.07,0.19-0.11c1.17-0.71,1.61-2.23,0.97-3.47c-2.44-4.77-5.11-9.52-7.94-14.13c-1.87-3.05-3.82-6.06-5.85-9.02
	c-0.83-1.21-2.39-1.66-3.7-0.69C1899.29,1242.54,1898.98,1244.19,1899.81,1245.41"/>
<path class="st1" d="M1919.88,1282.26c3.37,8.12,6.21,16.48,8.42,24.84c0.37,1.43,1.83,2.27,3.25,1.9c0.26-0.07,0.5-0.17,0.72-0.31
	c0.97-0.59,1.48-1.78,1.17-2.94c-2.27-8.6-5.18-17.19-8.65-25.53c-0.56-1.36-2.12-2-3.48-1.44
	C1919.98,1279.33,1919.31,1280.9,1919.88,1282.26"/>
<path class="st1" d="M1872.78,1213.27c6.26,6.12,12.2,12.67,17.64,19.47c0.85,1.06,2.34,1.3,3.47,0.61c0.1-0.06,0.19-0.12,0.28-0.19
	c1.14-0.92,1.33-2.59,0.41-3.74c-5.58-6.97-11.66-13.69-18.07-19.96c-1.05-1.03-2.74-1.02-3.77,0.04
	C1871.71,1210.55,1871.73,1212.24,1872.78,1213.27"/>
<path class="st1" d="M1826.53,1178.83c0.87,0.48,1.89,0.42,2.68-0.06c0.38-0.24,0.71-0.57,0.94-0.99c0.71-1.29,0.24-2.91-1.05-3.61
	c-7.9-4.35-16.1-8.21-24.37-11.47c-1.38-0.53-2.92,0.14-3.46,1.5c-0.54,1.37,0.14,2.91,1.51,3.45
	C1810.84,1170.83,1818.83,1174.59,1826.53,1178.83"/>
<path class="st1" d="M1939.42,1393.63c0.49-0.02,0.94-0.16,1.33-0.4c0.78-0.48,1.29-1.35,1.26-2.33l-0.08-3.37
	c-0.21-7.77-0.41-15.54-0.76-23.29c-0.07-1.47-1.31-2.6-2.78-2.54c-1.47,0.07-2.6,1.31-2.54,2.78c0.34,7.72,0.55,15.46,0.75,23.19
	l0.1,3.37C1936.73,1392.51,1937.96,1393.67,1939.42,1393.63"/>
<path class="st1" d="M1861.11,1202.65c0.9,0.76,2.16,0.82,3.11,0.24c0.24-0.15,0.45-0.33,0.65-0.56c0.94-1.12,0.8-2.8-0.32-3.74
	c-6.86-5.8-14.13-11.21-21.6-16.09c-1.23-0.8-2.87-0.45-3.68,0.77c-0.8,1.23-0.46,2.88,0.77,3.69
	C1847.33,1191.72,1854.42,1197,1861.11,1202.65"/>
<path class="st1" d="M1939.75,1404.27c-1.48,0.07-2.61,1.29-2.56,2.77c0.4,10.44,0.95,18.93,1.72,26.72
	c0.15,1.46,1.45,2.53,2.92,2.38c0.41-0.04,0.79-0.17,1.12-0.37c0.85-0.52,1.36-1.49,1.26-2.54c-0.76-7.68-1.3-16.07-1.7-26.4
	C1942.45,1405.36,1941.22,1404.22,1939.75,1404.27"/>
<path class="st1" d="M2049.39,1568.52c-1.41-0.41-2.89,0.4-3.29,1.82c-0.41,1.41,0.4,2.88,1.82,3.29
	c8.12,2.35,16.72,4.23,26.29,5.75c0.65,0.11,1.29-0.04,1.81-0.36c0.64-0.39,1.11-1.05,1.24-1.85c0.23-1.45-0.76-2.81-2.22-3.04
	C2065.7,1572.64,2057.3,1570.8,2049.39,1568.52"/>
<path class="st1" d="M1933.82,1319.4c-1.44,0.27-2.41,1.64-2.15,3.09c1.41,7.98,2.46,16.53,3.22,26.14c0.12,1.47,1.4,2.56,2.86,2.45
	c0.44-0.04,0.84-0.17,1.19-0.39c0.82-0.5,1.34-1.45,1.26-2.48c-0.77-9.78-1.85-18.5-3.3-26.65
	C1936.65,1320.11,1935.27,1319.15,1933.82,1319.4"/>
<path class="st1" d="M1772.41,1153.02c-3.07-0.63-6.14-1.2-9.22-1.71c-1.44-0.23-2.82,0.74-3.06,2.2c-0.23,1.45,0.75,2.82,2.2,3.06
	c3.01,0.49,6,1.04,8.99,1.66c5.55,1.16,11.13,2.58,16.58,4.24c0.76,0.23,1.54,0.11,2.16-0.27c0.54-0.33,0.96-0.85,1.16-1.49
	c0.43-1.41-0.37-2.9-1.77-3.33C1783.84,1155.67,1778.11,1154.21,1772.41,1153.02"/>
<path class="st5" d="M830.17,2642.96c0,0,3.97,5.73,23.12,11.01c4.22,1.16,8.77,1.98,8.63,8.97c-8.99-0.17-19-0.37-19-0.37
	l-19.36-3.74l-0.07,3.36l-10.49-0.2c0,0-2.59-17.21,3.58-19.3C822.28,2642.81,830.17,2642.96,830.17,2642.96"/>
<path class="st7" d="M831.41,2630.66l-1.24,12.3c-3.88,2.58-8.91,2.65-12.86,0.18l-0.71-0.45l0.24-12.32L831.41,2630.66"/>
<path class="st5" d="M732.7,2643.51c0,0,3.97,5.73,23.12,11.01c4.22,1.16,8.77,1.99,8.63,8.97c-8.99-0.17-19-0.37-19-0.37
	l-19.36-3.73l-0.06,3.35l-10.49-0.2c0,0-2.59-17.21,3.58-19.29C724.8,2643.36,732.7,2643.51,732.7,2643.51"/>
<path class="st7" d="M733.93,2631.21l-1.24,12.3c-3.88,2.58-8.91,2.65-12.86,0.18l-0.71-0.44l0.24-12.33L733.93,2631.21"/>
<path class="st3" d="M845.07,2327.97L834.3,2637.4l-22.55-0.44c0,0-29.44-250.57-20.95-310.05
	C799.29,2267.42,845.07,2327.97,845.07,2327.97"/>
<path class="st4" d="M821.24,2327.44c0,0-9.71,94.93-28.77,147.21c-19.06,52.28-53.75,160.89-53.75,160.89l-23.34-0.46
	c0,0,43.44-227.52,36.11-309.01L821.24,2327.44"/>
<path class="st10" d="M844.64,2170.28c0,0,26.53,65.36,33.58,65.5c5.64,0.11-1.08-52.97-1.08-52.97l23.27,0.46
	c0,0,27.5,91.28,3.9,107.4c-23.6,16.12-73.5-48.36-73.5-48.36L844.64,2170.28"/>
<path class="st7" d="M758.53,2334.44l8.02,20.99c3.9,8.26,18.8,8.76,28.75,6.35c1.49-0.36,2.05-2.2,1.04-3.35
	c-5.32-6.07-19.13-21.62-23.95-25.14L758.53,2334.44"/>
<path class="st10" d="M821.9,2156.29c9.08,0.26,17.66,4.93,22.13,12.84c1.56,2.76,2.62,5.81,2.56,8.94
	c-0.22,11.29-2.93,149.8-2.93,149.8l-85.05-1.66l2.74-140.05c0,0,2.35-31.11,32.79-30.51C807.1,2155.9,815.98,2156.12,821.9,2156.29
	"/>
<polyline class="st2" points="842.25,2327.91 844.88,2193.37 847.7,2193.52 845.07,2327.97 842.25,2327.91 "/>
<path class="st8" d="M791.35,2127l8.4,34.32c0,0,7.62,6.44,17.93,3.91c10.31-2.52,8.49-9.95,8.49-9.95l-5.38-22l-16.23-0.24
	L791.35,2127"/>
<path class="st7" d="M823.7,2139.48c3.15-0.87,5.97-2.11,7.17-3.86c5.58-16.83-14.47-53.6-14.47-53.6l-31.76,14.08l5.39,26.61
	c1.44,7.11,6.17,13.1,12.75,16.15C809.55,2141.04,816.84,2141.38,823.7,2139.48"/>
<path class="st5" d="M800.43,2092.97c0,0,11.53-0.64,22.63-5.54c11.1-4.9,0.54-15.87,0.54-15.87s-7.63,6.02-23.44,7.5
	c-10.67,1-13.93-0.32-19.66,4.81c-7.8,6.98-1.66,22.67-1.66,22.67l13.35,33.09l1.85-0.45c0,0-4.54-20.51-6.24-27.46
	c1.17-3.63,3.27-4.15,5.08-3.75c1.96,0.42,3.43,2.08,3.91,4.03l8.72,35.62c0,0,25.07,4.23,30.41,1.04
	c5.34-3.18-4.98-28.63-4.98-28.63s-7.36-1.26-11.1,5.78c-3.71,6.97-11.37,2.54-11.37,2.54L800.43,2092.97"/>
<path class="st7" d="M895.95,2183.18l-0.73-4.49c-1.62-9.93-10.84-22.42-20.31-25.84l-9.88-0.19l2.65,21.17l13.77,9.07
	L895.95,2183.18"/>
<path class="st7" d="M789.78,2107.78c2.5-0.84,5.54,1,6.8,4.11c1.26,3.1,0.26,6.3-2.24,7.13c-2.5,0.84-5.54-1-6.8-4.11
	C786.28,2111.8,787.28,2108.61,789.78,2107.78"/>
<path class="st7" d="M871.79,2171.57l19.03,11.51c0,0-12.08-0.36-12.27-0.24l-20.04-17.45c0,0,1.54-2.94,6.1-0.34
	C869.18,2167.65,871.79,2171.57,871.79,2171.57"/>
<path class="st10" d="M770.83,2164.57c0,0-49.13,52.47-49.75,84.49c-0.62,32.02,37.3,89.21,37.3,89.21l19.39-5.27
	c0,0-16.03-70.17-15.67-88.74c0.36-18.58,36.63-45.11,36.63-45.11"/>
<path class="st2" d="M763.51,2244.29c-0.31,15.99,12.7,74.73,15.76,88.42c-0.98,0.24-1.39,0.31-2.87,0.66
	c-3.76-16.91-16.02-73.42-15.71-89.14c0.37-19.05,35.71-45.12,37.21-46.22l1.67,2.28C799.21,2200.55,763.85,2226.61,763.51,2244.29"
	/>
<path class="st4" d="M859.83,2139.4c0,0-1.78,21,12.68,36.18c0.89,0.94,2.31,1.57,3.79,1.62c2.99,0.08,4.95-1.17,6.5-1.8
	c2.28-0.92,3.27-2.23,3.7-3.29c0.37-0.9,0.13-1.91-0.57-2.74c-2.98-3.57-12.34-15.93-9.95-27.99
	C868.62,2136.62,859.83,2139.4,859.83,2139.4"/>
<path class="st3" d="M884.48,2174.5c1.38-0.89,1.61-1.41,2.02-2.39c0.37-0.9,0.13-1.91-0.57-2.74c-2.98-3.57-12.34-15.93-9.95-27.99
	c-2.6-1.69-5.38-2.42-7.88-2.67C869.05,2151.58,872.7,2159.87,884.48,2174.5"/>
<path class="st4" d="M872.98,2155.17c0.92,2.89,2.58,4.93,3.71,4.57s1.31-2.99,0.39-5.87c-0.92-2.88-2.58-4.93-3.71-4.57
	C872.23,2149.66,872.06,2152.29,872.98,2155.17"/>
<polyline class="st16" points="873.15,2149.41 874.33,2149 874.31,2149.62 873.53,2150.02 873.15,2149.41 "/>
<polyline class="st17" points="876.41,2159.78 877.86,2159.34 876.15,2159.27 876.41,2159.78 "/>
<path class="st1" d="M873.94,2154.87c0.92,2.88,2.58,4.92,3.71,4.56c1.13-0.36,1.31-2.98,0.39-5.87c-0.91-2.88-2.58-4.92-3.71-4.56
	C873.2,2149.36,873.03,2151.99,873.94,2154.87"/>
<path class="st4" d="M852.84,2122.6l-2.27,0.24c-4.34,0.46-7.53,4.21-7.09,8.34l0.63,5.96c0.44,4.13,4.34,7.13,8.67,6.67l2.27-0.23
	L852.84,2122.6"/>
<path class="st5" d="M922.77,2121.19c1.72,16.27-0.63,29.86-5.24,30.34c-4.61,0.49-9.75-12.31-11.47-28.58
	c-1.72-16.27,0.63-29.86,5.24-30.35C915.92,2092.12,921.05,2104.91,922.77,2121.19"/>
<polyline class="st2" points="904.54,2112.13 911.6,2115.73 912.61,2125.26 906.45,2132.16 902.79,2120.01 904.54,2112.13 "/>
<path class="st3" d="M906.06,2122.95c-1.44-13.67-0.01-25.42,3.22-29.12c-0.01,0-0.01-0.01-0.02-0.02
	c-25.57,22.9-57.72,29.14-57.72,29.14l2.2,20.8c0,0,43.62-7.1,61.54,7.03c0.01-0.01,0.02-0.01,0.02-0.02
	C911.36,2147.83,907.5,2136.64,906.06,2122.95"/>
<path class="st10" d="M913,2120.38c0.28,2.65,0.1,4.83-0.4,4.88c-0.5,0.06-1.13-2.04-1.41-4.69c-0.28-2.64-0.1-4.83,0.4-4.88
	C912.09,2115.64,912.72,2117.74,913,2120.38"/>
<path class="st7" d="M885.55,2167.64c-0.68,0.24-3.1,1.69-10.79,1.54c-5.6-0.1-7.98-7.03-8.86-10.79c-0.31-1.33-0.57-3.2,1.09-4.01
	l9.02-1.07L885.55,2167.64"/>
<path class="st8" d="M2351.14,2275.46c-8.93-6.08,13.45-8.52,21.67-17.84l16.61-28.01l4.01,24.65l-12.67,15.83
	c0,0-12.18,8.38-12.86,14.16C2367.71,2285.86,2352.48,2276.38,2351.14,2275.46"/>
<path class="st5" d="M2522.4,2636.75c0,0-8.61,9.75-31.38,15.85c-5.02,1.35-11.05-0.45-9.36,8.25c11.19,0,29.08,0,29.08,0
	l23.36-4.18l0.82,4.18h13.06c0,0-0.52-21.36-8.68-24.1C2532.23,2636.75,2522.4,2636.75,2522.4,2636.75"/>
<path class="st7" d="M2521.98,2621.41l0.42,15.34c5.41,3.31,11.71,3.52,16.1,0.54l0.8-0.54l-4.29-15.34H2521.98"/>
<path class="st5" d="M2410.3,2321.43l107.62,299.98h17.31c0,0,12.58-59.11-26.31-144.52c-5.51-12.12-8.7-24.79-9.15-37.16
	c-2.45-67.79-19.71-139.85-19.71-139.85L2410.3,2321.43"/>
<polyline class="st8" points="2365.68,2120.77 2384.01,2142.79 2402.31,2126.33 2372.86,2098.2 2365.68,2120.77 "/>
<path class="st7" d="M2361.93,2129.82c-2.59,1.94-5.25,3.43-7.27,3.4c-15.77-4.83-30.2-40.14-30.2-40.14l7.79-14.2l22.21-2.53
	l16.11,18.55c4.3,4.96,5.74,11.84,3.89,18.53C2371.85,2119.81,2367.58,2125.59,2361.93,2129.82"/>
<path class="st5" d="M2360.77,2089.1c-3.38-2.58-8.87-10.37-11.73-7.22c-2.09,2.3-10.04,9.16-12.8,11.36
	c-6.6,5.23-20.4,11.98-28.36,1.94c-3.98-5.01-2.55-13.2-0.48-16.93c2.02-3.66,5.48-6.31,9.43-7.68c9.28-3.23,23.35-5.27,26.57-9.09
	c5.43-6.42,14.88-7.75,19.15-2.19c4.55,5.94,8.49,17.18,10.06,25.07c0.9,4.57,0.98,9.25,0.25,13.84L2360.77,2089.1"/>
<path class="st7" d="M2368.03,2084.53c-2.5-0.14-5.05,2.29-5.71,5.42c-0.65,3.13,0.85,5.77,3.35,5.9c2.5,0.13,5.05-2.3,5.7-5.43
	C2372.03,2087.3,2370.53,2084.66,2368.03,2084.53"/>
<path class="st5" d="M2456.86,2636.75c0,0-10.51,9.75-34.47,15.85c-5.27,1.35-10.96-0.45-10.96,8.25c11.19,0,29.07,0,29.07,0
	l24.18-4.18v4.18h13.07c0,0,3.63-21.36-4-24.1C2466.69,2636.75,2456.86,2636.75,2456.86,2636.75"/>
<path class="st7" d="M2459.43,2621.41l-2.57,15.34c4.76,3.31,11.02,3.52,16,0.54l0.89-0.54l-1.3-15.34H2459.43"/>
<path class="st3" d="M2381.57,2141.11c0.51-7.03,6.15-21.06,13.18-21.54c21.54-1.46,64.22-1.17,73.69,29.56
	c11.62,37.7,11.62,150.75,11.62,150.75l-73.95,21.55C2406.11,2321.43,2378.17,2188.68,2381.57,2141.11"/>
<path class="st6" d="M2406.11,2321.43l49.25,299.98h17.31c0,0,24.09-59.11,1.82-144.52c-3.16-12.12-3.88-24.79-1.92-37.16
	c10.73-67.79,7.49-139.85,7.49-139.85L2406.11,2321.43"/>
<path class="st7" d="M2461.2,2146.15c-0.6,8.44-7.3,17.12-7.59,25.52c-0.01,0.27,16.95,19.39,16.95,19.39l-83.71,73.05l12.83,9.5
	c0,0,104.68-53.3,104.68-91c0-13-11.55-33.14-29.38-44.66C2472.76,2143.42,2467.21,2147.53,2461.2,2146.15"/>
<path class="st3" d="M2454.71,2180.49l29.22-36.24l-6.91-5.01c-10.53-7.63-22.54-13-35.25-15.76l-14.98,7.04L2454.71,2180.49"/>
<path class="st7" d="M2399.68,2273.61l-19.78,13.07c-8.42,4.69-21.51-4.05-28.56-12.23c-1.06-1.23-0.41-3.15,1.17-3.51
	c8.29-1.94,29.7-6.79,36-6.83L2399.68,2273.61"/>
<path class="st3" d="M2310.69,2555.56l-11.07,29.31c-0.92,4.1-1.08,9,3.15,11.43c0,0,2.8,1.63,5.81,2.66
	c2.01-0.42,14.79-40,14.79-40l-0.12-0.24C2318.18,2552.12,2310.69,2555.56,2310.69,2555.56"/>
<polyline class="st5" points="2308.58,2598.96 2323.37,2558.96 2325.32,2560.09 2310.41,2599.72 2308.58,2598.96 "/>
<polyline class="st2" points="2306.28,2567.15 2305.31,2569.8 2310.42,2570.78 2311.38,2568.22 2306.28,2567.15 "/>
<polyline class="st2" points="2304.15,2572.81 2303.18,2575.46 2308.29,2576.45 2309.25,2573.88 2304.15,2572.81 "/>
<path class="st7" d="M2298.41,2548.65l12.28,6.91c0.71,2.95-0.35,6.05-2.7,7.96l-0.43,0.34l-13.56-3.48L2298.41,2548.65"/>
<path class="st5" d="M2200.35,2363.74c0,0,12.18,13.12,15.32,36.2c2.09,15.37-3.66,39.72-4.29,58.82
	c-0.58,17.47,7.31,31.35,21.15,42.02l65.88,47.87l-4.41,11.73c0,0-90.17-13.52-113.84-53.91c-23.67-40.38-29.29-131.8-29.29-131.8
	L2200.35,2363.74"/>
<path class="st7" d="M2252.8,2313.98l33.89,75.66c0,0,13.92,1.62,19.96,6.96c3.15,2.79,3.01,8.37,2.15,13.06
	c-0.64,3.55-4.92,5.06-7.65,2.7c-3.72-3.24-8.53-6.88-11.68-7.41c-8.35-1.39-10.85-7.31-10.85-7.31L2230,2321.4L2252.8,2313.98"/>
<path class="st7" d="M2081.94,2161.81l-17.36-14.84l13.46-73.34c0,0,12.18-8.5,20.89-10.68c3.68-10.56-17.26-14.98-17.26-14.98
	c-4.96-1.59-10.69,6.71-10.69,6.71c-0.85,1.17-1.4,2.52-1.61,3.94l-2,13.62c0,0-26.93,73.81-26.93,81.69
	c0,7.88,15.09,18.68,15.09,18.68L2081.94,2161.81"/>
<path class="st6" d="M2175.29,2371.35c0,0,10.44,12.58,4.17,41.82c-4,18.67-21.56,42.16-33.36,58.34
	c-8.46,11.6-8.64,26.19-6.1,40.32c9.67,53.7-5.79,119.27-5.79,119.27h-12.54c0,0-18.79-96.08-24.37-163.62
	c-5.02-60.9,21.04-105.74,21.59-106.53L2175.29,2371.35"/>
<path class="st1" d="M2206.04,2222.89c22.39,16.45,48.75,95.53,48.75,95.53l-19.66,11.03l-31.99-43.91c0,0-3.12,50.83,4.53,89.82
	c-3.48,14.63-20.09,12.98-47.01,7.87c-26.92-5.1-44.56-16.71-44.56-16.71s-1.16-70.52-4.64-107.92
	c-3.48-37.39,3.39-41.39-6.03-40.15c-21.03-11.94-55.5-50.41-55.5-50.41l32.01-6.23l68.93,40.39
	C2150.87,2202.2,2184.58,2211.09,2206.04,2222.89"/>
<path class="st7" d="M2166.99,2129.35l-16.63,16.43c-7.07,6.97-10.04,17.08-7.89,26.77l1.95,8.77L2166.99,2129.35"/>
<path class="st6" d="M2187.12,2123.14c40.38,0,23.21,77.52,23.21,77.52s-7.19,50.28-23.21,70.48
	c-13.86,17.47-41.28,12.21-54.27,3.83c-6.35-4.1-13.47-6.84-20.97-7.74c-11-1.33-24.09-6.19-24.09-26.03
	c0-18.69,22.3-33.14,36.98-43.46c9.57-6.72,16.24-16.78,19.03-28.14C2148.5,2150.47,2159.96,2123.14,2187.12,2123.14"/>
<path class="st3" d="M2132.06,2645.03l-31.33-0.05c-4.16,0.59-8.81,2.16-9.59,6.98c0,0-0.54,3.19-0.45,6.37
	c1.11,1.74,42.65-0.23,42.65-0.23l0.18-0.2C2137.92,2650.83,2132.06,2645.03,2132.06,2645.03"/>
<polyline class="st6" points="2090.69,2658.33 2133.34,2658.1 2132.97,2660.31 2090.63,2660.31 2090.69,2658.33 "/>
<polyline class="st2" points="2119.66,2644.98 2116.83,2645.01 2117.71,2650.14 2120.45,2650.14 2119.66,2644.98 "/>
<polyline class="st2" points="2113.61,2644.98 2110.79,2645.01 2111.67,2650.14 2114.4,2650.14 2113.61,2644.98 "/>
<path class="st7" d="M2134.21,2631.1l-2.15,13.93c-2.52,1.7-5.78,1.8-8.4,0.27l-0.48-0.28l-1.51-13.92H2134.21"/>
<polyline class="st8" points="451.3,415.95 485.94,506.47 507.78,490.22 458.98,407.97 451.3,415.95 "/>
<path class="st8" d="M455.59,388.57c2.19,2.69,3.3,6.1,3.13,9.56l1.53,13.07l-1.78,2.02l-6.13,5.44c0.22-2.71,0.52,0,0.52,0
	L443,401.51c0,0-11.92-7.64,3.11-18.92c1.44-1.08,3.45-1.32,4.94-0.32C454.8,384.78,455.59,388.57,455.59,388.57"/>
<path class="st4" d="M527.77,571.86c-24.87-33.38-41.83-65.38-41.83-65.38l18.79-21.39l23.04,26.86V571.86"/>
<path class="st8" d="M581.88,964.22l-11.03,1.91c-2.28-13.68-36.59-78.55-39.38-112.24c-3.1-37.4-11.79-79.05-11.79-79.05
	l36.9-10.97c0,0,9.34,0-0.92,76.23C578.74,870.39,584.93,939.12,581.88,964.22"/>
<path class="st7" d="M554.71,736.14c0,0-8.67,52.15-20.72,107.92c12.59,33.68-6.6,127.66-6.95,127.32
	c-1.45-1.36-8.08,6.81-8.08,6.81s-13.99-82.94-17.09-120.34c-3.1-37.4-3.87-83.01-3.87-83.01L554.71,736.14"/>
<path class="st6" d="M528.6,966.13c0,0,5.25,4.45,4.29,10.13c-0.96,5.68-2.33,18.98-2.33,18.98h-5.4l0.17-12.4
	c-0.02-0.81-11.58,12.4-13.54,12.4h-28.58c0,0-1.9-8.37,14.88-11.06C514.88,981.5,528.6,966.13,528.6,966.13"/>
<path class="st8" d="M569.59,956.68l0.76,11.83c0.16,2.49-0.53,4.95-1.95,7c-1.57,2.27-4.22,5.37-8.59,8.93
	c8.29,2.66,15.82-6.63,19.77-12.8c1.92-3.01,2.67-6.61,2.15-10.14l-1.39-9.31L569.59,956.68"/>
<path class="st5" d="M581.88,963.19c0,0,7.29,0.65,8.5,6.2c1.21,5.54,4.65,16.76,4.65,16.76l-3.98,3.17l-5.6-11.12
	c0,0-12.05,16.25-13.97,17.05h-31.19c0,0,0-10.32,19.52-10.79C577.8,984.02,581.88,963.19,581.88,963.19"/>
<polyline class="st7" points="414.9,411.57 449.55,502.1 471.38,485.85 422.59,403.59 414.9,411.57 "/>
<path class="st7" d="M419.19,384.2c2.19,2.69,3.3,6.1,3.13,9.56l1.53,13.07l-1.78,2.02l-6.13,5.44c0.22-2.71,0.52,0,0.52,0
	l-9.86-17.16c0,0-11.92-7.64,3.11-18.92c1.44-1.08,3.45-1.32,4.94-0.32C418.4,380.41,419.19,384.2,419.19,384.2"/>
<polyline class="st8" points="519.69,524.29 542.01,524.29 533.1,498.05 515.64,508.78 519.69,524.29 "/>
<path class="st3" d="M490.03,552.51c0.11-0.66,0.26-1.21,0.39-1.82c-22.11-28.51-40.88-48.59-40.88-48.59l18.79-21.39l42.71,40.56
	l12.53,0.05c0,0,16.93-11.17,31.71,4.08c5.4,5.57,9,20.68,5.39,36.65c-9.95,44.03-2.16,67.32-2.16,67.32l-57.6,21.48
	c0,0-1.31-38.29-2.21-65.14c0-0.03,0-0.06,0-0.09c-0.17-5.24-1.92-10.23-4.68-14.69C490.86,565.78,488.85,559.52,490.03,552.51"/>
<path class="st7" d="M511.84,450.89l36.61,12.82l-3.61,27.33c-0.05,0.39-0.15,0.76-0.23,1.14c-0.7,0.13-1.41,0.26-2.11,0.43
	c-0.11,0.03-0.22,0.07-0.34,0.1c-0.11,0.03-0.22,0.04-0.33,0.07c-8.45,2.08-14.43,9.06-17.12,17.13c-5.2,0.87-10.58,0.88-15.85-0.2
	c-3.58-0.74-6.83-1.87-8.32-3.59C492.83,489.25,511.84,450.89,511.84,450.89"/>
<path class="st5" d="M512.68,474.15c9.86,4.82,7.53,55.61,9.24,90.21c0.91,18.61,14.88,33.83,33.29,36.77
	c13.05,2.08,27.38,2.47,36.02-2.46c-5.71-4.67-36.51-49.99-26.65-110c1.3-7.9,1.46-29.89-11.84-41.82
	c-14.77-13.26-45.26,4.04-45.26,4.04S499.14,467.52,512.68,474.15"/>
<path class="st10" d="M499.74,628.02c0,0-7.67,39.03-7.67,62.25c0,12.76,3.13,93.12,3.13,93.12s54.73,3.96,65.36,3.96
	c2.63-65.86,17.65-67.88,17.65-98.6c0-13.35-6.85-28.44-12.1-38.05c-3.77-6.9-6.14-11.72-7.59-21.35l-0.36-1.25L499.74,628.02"/>
<polyline class="st18" points="440.46,150.19 399.16,229.66 310.27,240.69 373.09,304.53 356.11,392.47 436.24,352.45 
	514.64,395.78 501.34,307.2 566.77,246.04 478.42,231.31 440.46,150.19 "/>
<polyline class="st10" points="310.27,240.69 399.16,229.66 439.59,151.87 435.4,352.88 356.11,392.47 373.09,304.53 310.27,240.69 
	"/>
<g>
	<defs>
		<path id="SVGID_15_" d="M1952.85,769.12h-734.96c0,0-39.86-50.42,0-84.35c21.99-18.72,47.97-16.78,66.84-11.28
			c12.29,3.59,24.55-4.71,27.25-17.23c4.47-20.73,18.24-47.85,57.8-63.89c38.92-15.77,63.54,8.31,77.79,33.05
			c4.68,8.14,17.16,6.92,19.99-2.04c12.34-39.06,55.33-90.83,196.61-90.83c179.69,0,159.72,95.52,143.66,135.23
			c-2.79,6.89,3.11,14.04,10.39,12.48c27.71-5.93,79.16-13.6,102.23,4.51C1952.85,710.21,1952.85,769.12,1952.85,769.12"/>
	</defs>
	<clipPath id="SVGID_16_">
		<use xlink:href="#SVGID_15_"  style="overflow:visible;"/>
	</clipPath>
	
		<linearGradient id="SVGID_17_" gradientUnits="userSpaceOnUse" x1="0" y1="2828" x2="1" y2="2828" gradientTransform="matrix(-752.679 0 0 -752.679 1952.85 2129227)">
		<stop  offset="0" style="stop-color:#DFEFEA"/>
		<stop  offset="1" style="stop-color:#BFE3EE"/>
	</linearGradient>
	<rect x="1178.03" y="532.55" class="st19" width="774.82" height="236.57"/>
</g>
<g>
	<defs>
		<path id="SVGID_18_" d="M2608.88,1177.6c9.63-9.27,13.65-19.31,9.11-30c-25.23-59.52-101.05-18.02-101.05-18.02
			s9.52-44.94-119.48-74.62c-129-29.68-128.49,69.22-128.49,69.22s-114.69-63.43-137.11,33.97c-1.61,7.03-1.57,13.49-0.12,19.45
			H2608.88"/>
	</defs>
	<clipPath id="SVGID_19_">
		<use xlink:href="#SVGID_18_"  style="overflow:visible;"/>
	</clipPath>
	
		<linearGradient id="SVGID_20_" gradientUnits="userSpaceOnUse" x1="-8.174569e-04" y1="2828.0247" x2="0.9992" y2="2828.0247" gradientTransform="matrix(489.203 0 0 -489.203 2130.6499 1384579.625)">
		<stop  offset="0" style="stop-color:#DFEFEA"/>
		<stop  offset="1" style="stop-color:#BFE3EE"/>
	</linearGradient>
	<rect x="2130.25" y="1025.28" class="st20" width="492.28" height="152.32"/>
</g>
</svg>
