<svg viewBox="0 0 21 13" fill="none" xmlns="http://www.w3.org/2000/svg">
<g clip-path="url(#clip0)">
<path fill-rule="evenodd" clip-rule="evenodd" d="M0.0917969 6.34204C0.0917969 5.92782 0.427583 5.59204 0.841797 5.59204H18.8418C19.256 5.59204 19.5918 5.92782 19.5918 6.34204C19.5918 6.75625 19.256 7.09204 18.8418 7.09204H0.841797C0.427583 7.09204 0.0917969 6.75625 0.0917969 6.34204Z" fill="#0C608B"/>
<path fill-rule="evenodd" clip-rule="evenodd" d="M14.2705 0.815129C14.5634 0.522236 15.0383 0.522236 15.3312 0.815129L20.1312 5.61513C20.2718 5.75578 20.3509 5.94655 20.3509 6.14546C20.3509 6.34437 20.2718 6.53514 20.1312 6.67579L15.3312 11.4758C15.0383 11.7687 14.5634 11.7687 14.2705 11.4758C13.9776 11.1829 13.9776 10.708 14.2705 10.4151L18.5402 6.14546L14.2705 1.87579C13.9776 1.5829 13.9776 1.10802 14.2705 0.815129Z" fill="#0C608B"/>
</g>
<defs>
<clipPath id="clip0">
<rect width="21" height="12" fill="white" transform="translate(0 0.5)"/>
</clipPath>
</defs>
</svg>
