<svg viewBox="0 0 22 23" fill="none" xmlns="http://www.w3.org/2000/svg">
<path fill-rule="evenodd" clip-rule="evenodd" d="M2.76159 0C1.38883 0 0.277367 1.17684 0.277367 2.63036C0.277367 4.08387 1.38883 5.26071 2.76159 5.26071C4.13436 5.26071 5.24535 4.08387 5.24535 2.63036C5.24535 1.17684 4.13436 0 2.76159 0ZM21.47 12.1407C21.1429 9.28867 19.9146 7.51709 16.2799 7.51709C14.1485 7.51709 12.7104 8.3476 12.1091 9.55221H12.0438V7.51709H8.08191V22.5641H12.2269V15.1032C12.2269 13.1368 12.5926 11.241 14.8685 11.241C17.1553 11.241 17.325 13.4831 17.325 15.241V22.5641H21.5873V14.3C21.5873 13.5245 21.5477 12.8051 21.47 12.1407ZM0.277344 11.5177V22.5641H5.24532V7.51709H0.277344V11.5177V11.5177Z" fill="#222222"/>
</svg>
