<svg viewBox="0 0 186 42" fill="none" xmlns="http://www.w3.org/2000/svg">
<path d="M69.6815 31.2395H71.7057V34.602H63.5186V31.2395H65.5427V22.0739H63.6993V18.7113H71.5249V22.0739H69.6815V31.2395Z" fill="#293840"/>
<path d="M86.9958 34.6387L78.6463 26.4131V34.6025H74.4893V18.6576H75.7905L84.0682 26.4854V18.7298H88.2248V34.6568H86.9958V34.6387Z" fill="#293840"/>
<path d="M90.8267 29.7212H94.767C94.767 30.2273 95.0196 30.6431 95.5075 30.9324C96.0139 31.2216 96.5921 31.3662 97.2792 31.3662C97.9115 31.3662 98.4719 31.2216 98.9777 30.9505C99.4656 30.6793 99.7188 30.3178 99.7188 29.8658C99.7188 29.6308 99.6825 29.4138 99.5922 29.215C99.5019 29.0342 99.3753 28.8715 99.1946 28.763C99.0139 28.6545 98.8511 28.5641 98.7067 28.4919C98.5623 28.4195 98.3453 28.3653 98.0559 28.3291C97.7671 28.293 97.5502 28.2568 97.4236 28.2568C97.297 28.2388 97.0985 28.2207 96.7912 28.2026C96.0139 28.1484 95.309 28.0399 94.6404 27.8591C93.9896 27.6783 93.3751 27.4072 92.7969 27.0637C92.2364 26.7202 91.7847 26.2501 91.4597 25.6536C91.134 25.057 90.9711 24.352 90.9711 23.5565C90.9711 21.9114 91.5678 20.6278 92.7606 19.7239C93.9534 18.82 95.4172 18.3681 97.1341 18.3681C98.2009 18.3681 99.1768 18.5488 100.099 18.9285C101.02 19.3081 101.761 19.8866 102.375 20.7002C102.972 21.5137 103.261 22.4718 103.243 23.5746H99.3575C99.339 23.0684 99.1221 22.6707 98.7245 22.4176C98.3091 22.1645 97.8033 22.0379 97.2066 22.0379C95.7607 22.0379 95.0558 22.526 95.0558 23.4842C95.0558 23.9904 95.2549 24.3339 95.6341 24.5327C96.0139 24.7316 96.6284 24.8762 97.4777 24.9666C98.2366 25.0208 98.8874 25.1112 99.4478 25.2197C100.008 25.3282 100.568 25.4908 101.146 25.7259C101.725 25.9609 102.195 26.2501 102.556 26.5936C102.918 26.9371 103.225 27.3891 103.46 27.9495C103.695 28.5099 103.804 29.1788 103.804 29.92C103.804 31.4928 103.153 32.7402 101.87 33.6441C100.586 34.548 99.068 35 97.3148 35C95.5075 35 93.9534 34.548 92.6703 33.6441C91.405 32.704 90.7905 31.4024 90.8267 29.7212Z" fill="#293840"/>
<path d="M112.66 34.8009C110.87 34.8009 109.352 34.3128 108.087 33.3546C106.822 32.3784 106.189 31.0587 106.189 29.3593V18.7113H110.346V29.269C110.346 29.8836 110.581 30.3536 111.033 30.6791C111.485 31.0045 112.045 31.1491 112.695 31.1491C113.31 31.1491 113.853 30.9864 114.304 30.6791C114.756 30.3536 114.991 29.9017 114.991 29.269V18.7113H119.094V29.3593C119.094 31.0587 118.461 32.3784 117.214 33.3546C115.949 34.3309 114.431 34.8009 112.66 34.8009Z" fill="#293840"/>
<path d="M132.721 28.9436L135.83 33.9873V34.5839H131.42L128.709 29.6124H126.54V34.5839H122.383V18.6932H129.377C131.185 18.6932 132.576 19.2536 133.589 20.3745C134.601 21.4953 135.089 22.8151 135.089 24.3155C135.052 26.3584 134.257 27.895 132.721 28.9436ZM126.45 26.2318H129.323C129.865 26.2318 130.299 26.033 130.588 25.6353C130.896 25.2375 131.04 24.7675 131.04 24.2251C131.04 23.6828 130.896 23.2308 130.606 22.8512C130.317 22.4896 129.884 22.2908 129.323 22.2908H126.45V26.2318Z" fill="#293840"/>
<path d="M143.691 31.2395H145.716V34.602H137.528V31.2395H139.553V22.0739H137.709V18.7113H145.535V22.0739H143.691V31.2395Z" fill="#293840"/>
<path d="M161.005 34.6387L152.655 26.4131V34.6025H148.498V18.6576H149.8L158.077 26.4854V18.7298H162.234V34.6568H161.005V34.6387Z" fill="#293840"/>
<path d="M181.085 26.666C181.085 29.0884 180.326 31.059 178.808 32.5956C177.29 34.1322 175.32 34.8915 172.916 34.8915C171.849 34.8915 170.819 34.7108 169.861 34.3673C168.903 34.0238 168.036 33.5176 167.277 32.8487C166.518 32.1798 165.903 31.3121 165.47 30.2454C165.018 29.1788 164.801 27.9857 164.801 26.6479C164.801 24.8943 165.198 23.3757 166.012 22.0921C166.807 20.8086 167.819 19.8685 169.048 19.2719C170.259 18.6754 171.578 18.3681 173.006 18.3681C174.036 18.3681 175.031 18.5488 175.988 18.8923C176.946 19.2539 177.814 19.7601 178.573 20.429C179.332 21.0978 179.946 21.9656 180.416 23.0322C180.85 24.135 181.085 25.3282 181.085 26.666ZM168.94 26.666C168.94 28.0038 169.337 29.0703 170.115 29.8297C170.892 30.5889 171.831 30.9686 172.934 30.9686C174 30.9686 174.94 30.5889 175.736 29.8297C176.531 29.0703 176.928 28.0038 176.928 26.666C176.928 25.3282 176.531 24.2615 175.753 23.5023C174.958 22.743 174.036 22.3633 172.988 22.3633C171.868 22.3633 170.91 22.743 170.132 23.4842C169.337 24.2254 168.94 25.292 168.94 26.666Z" fill="#293840"/>
<path d="M8.67801 25.0518H6.20981C5.87142 25.0518 5.59275 25.2907 5.55294 25.6092C5.41361 26.4256 5.33398 27.2818 5.33398 28.1777C5.33398 29.0737 5.41361 29.9298 5.55294 30.7461C5.61266 31.0647 5.89132 31.3036 6.20981 31.3036H8.67801" fill="#68B6B8"/>
<path d="M40.7842 31.3235H43.2524C43.5907 31.3235 43.8694 31.0847 43.9092 30.7661C44.0486 29.9498 44.1282 29.0936 44.1282 28.1976C44.1282 27.3016 44.0486 26.4455 43.9092 25.6292C43.8495 25.3106 43.5708 25.0717 43.2524 25.0717H40.7842" fill="#68B6B8"/>
<path d="M8.67801 25.0518H6.20981C5.87142 25.0518 5.59275 25.2907 5.55294 25.6092C5.41361 26.4256 5.33398 27.2818 5.33398 28.1777C5.33398 29.0737 8.67801 28.6755 8.67801 28.6755V25.0518Z" fill="#91FAFF"/>
<path d="M40.7842 28.6755C40.7842 28.6755 44.1282 29.0737 44.1282 28.1777C44.1282 27.2818 44.0486 26.4256 43.9092 25.6092C43.8495 25.2907 43.5708 25.0518 43.2524 25.0518H40.7842" fill="#91FAFF"/>
<path d="M31.1303 18.0033V15.6539C31.1303 14.9968 30.6526 14.4394 29.9957 14.3199C28.3237 14.0412 26.5522 13.8819 24.7209 13.8819C22.8897 13.8819 21.1181 14.0412 19.4461 14.3199C18.7893 14.4394 18.3115 14.9968 18.3115 15.6539V18.0033" fill="#68B6B8"/>
<path d="M31.13 18.0033V15.6539C31.13 14.9968 30.6524 14.4394 29.9954 14.3199C28.3235 14.0412 26.5519 13.8819 24.7207 13.8819C22.9093 13.8819 31.13 18.0033 31.13 18.0033Z" fill="#91FAFF"/>
<path d="M24.8998 6.11698C26.1201 6.11698 27.1093 5.1275 27.1093 3.90692C27.1093 2.68634 26.1201 1.69687 24.8998 1.69687C23.6796 1.69687 22.6904 2.68634 22.6904 3.90692C22.6904 5.1275 23.6796 6.11698 24.8998 6.11698Z" fill="#68B6B8"/>
<path d="M24.8997 2.31403C24.3423 2.31403 23.8646 2.59277 23.5859 3.01088C23.6855 2.99098 23.785 2.99098 23.9044 2.99098C25.039 2.99098 25.9745 3.90686 25.9944 5.04175C26.293 4.763 26.4921 4.34489 26.4921 3.88695C26.4921 3.0308 25.7755 2.31403 24.8997 2.31403Z" fill="#91FAFF"/>
<path d="M9.69312 18.7801C9.37464 18.8199 9.15568 19.0788 9.11587 19.3774C8.85711 22.364 8.71777 25.47 8.71777 28.6756C8.71777 31.8613 8.85711 34.9872 9.11587 37.9738C9.13578 38.2923 9.37464 38.5313 9.69312 38.5711C14.3707 39.2679 19.4266 39.6462 24.7412 39.6462C30.0558 39.6462 35.1316 39.2679 39.7893 38.5711C40.1078 38.5313 40.3268 38.2725 40.3665 37.9738C40.6254 34.9872 40.7646 31.8812 40.7646 28.6756C40.7646 25.49 40.6254 22.364 40.3665 19.3774C40.3466 19.0589 40.1078 18.8199 39.7893 18.7801C35.1117 18.0833 30.0558 17.705 24.7412 17.705C19.4266 17.705 14.3509 18.0833 9.69312 18.7801Z" fill="#68B6B8"/>
<path d="M9.69312 18.7801C9.37464 18.8199 9.15568 19.0788 9.11587 19.3774C8.85711 22.364 8.71777 25.47 8.71777 28.6756C8.71777 31.8613 40.7646 31.8613 40.7646 28.6756C40.7646 25.49 40.6254 22.364 40.3665 19.3774C40.3466 19.0589 40.1078 18.8199 39.7893 18.7801C35.1117 18.0833 30.0558 17.705 24.7412 17.705C19.4266 17.705 14.3509 18.0833 9.69312 18.7801Z" fill="#91FAFF"/>
<path d="M37.2814 22.1249C37.2615 21.7864 37.0028 21.4877 36.6445 21.4479C32.8028 21.0098 28.8019 20.7908 24.7414 20.7908C20.6608 20.7908 16.6798 21.0098 12.8382 21.4479C12.4998 21.4877 12.2211 21.7664 12.2012 22.1249C12.1017 23.8769 12.042 24.7132 12.042 26.7241C12.042 28.7351 12.1017 29.5714 12.2012 31.3234C12.2211 31.6619 12.4799 31.9606 12.8382 32.0004C16.6798 32.4384 20.6807 32.6575 24.7414 32.6575C27.1299 32.6575 29.4787 32.5778 31.7877 32.4384C32.7829 33.8123 35.1118 34.4096 35.1118 34.4096C35.1118 34.4096 34.435 33.3742 34.1563 32.2592C34.9923 32.1796 35.8284 32.0999 36.6445 32.0203C36.9829 31.9805 37.2615 31.7018 37.2814 31.3434C37.381 29.5912 37.4406 28.755 37.4406 26.7441C37.4406 24.7132 37.381 23.8769 37.2814 22.1249Z" fill="#91FAFF"/>
<path d="M37.2814 22.0451C37.2615 21.7066 37.0028 21.408 36.6445 21.3681C32.8028 20.9301 28.8019 20.7111 24.7414 20.7111C20.6608 20.7111 16.6798 20.9301 12.8382 21.3681C12.4998 21.408 12.2211 21.6867 12.2012 22.0451C12.1017 23.7973 12.042 24.6335 12.042 26.6444C12.042 28.6554 12.1017 29.4916 12.2012 31.2437C12.2211 31.5822 12.4799 31.8809 12.8382 31.9207C16.6798 32.3587 20.6807 32.5777 24.7414 32.5777C27.1299 32.5777 29.4787 32.4981 31.7877 32.3587C32.7829 33.7325 35.1118 34.3298 35.1118 34.3298C35.1118 34.3298 34.435 33.2945 34.1563 32.1795C34.9923 32.0999 35.8284 32.0202 36.6445 31.9406C36.9829 31.9008 37.2615 31.622 37.2814 31.2636C37.381 29.5115 37.4406 28.6753 37.4406 26.6643C37.4406 24.6534 37.381 23.7973 37.2814 22.0451Z" fill="#293840"/>
<path d="M12.2012 22.1845C12.2211 21.846 12.4799 21.5473 12.8382 21.5075C16.6798 21.0695 20.6807 20.8505 24.7414 20.8505C28.8219 20.8505 32.8028 21.0695 36.6445 21.5075C36.9829 21.5473 37.2615 21.8261 37.2814 22.1845C37.381 23.9167 37.4406 24.7529 37.4406 26.7241C37.4406 26.7042 37.4406 26.6843 37.4406 26.6643C37.4406 24.6534 37.381 23.8172 37.2814 22.0651C37.2615 21.7266 37.0028 21.4279 36.6445 21.3881C32.8028 20.95 28.8019 20.731 24.7414 20.731C20.6608 20.731 16.6798 20.95 12.8382 21.3881C12.4998 21.4279 12.2211 21.7067 12.2012 22.0651C12.1017 23.8172 12.042 24.6534 12.042 26.6643C12.042 26.6843 12.042 26.7042 12.042 26.7241C12.042 24.7529 12.0818 23.9167 12.2012 22.1845Z" fill="black"/>
<path d="M34.1562 32.2989C34.3752 33.155 34.8132 33.9515 35.0122 34.2899C35.0719 34.3098 35.1117 34.3098 35.1117 34.3098C35.1117 34.3098 34.4947 33.3542 34.1961 32.279C34.1761 32.2989 34.1562 32.2989 34.1562 32.2989Z" fill="black"/>
<path d="M24.7408 41.0002C19.4859 41.0002 14.3505 40.6418 9.49371 39.9051C8.55818 39.7658 7.86151 39.0092 7.78189 38.0734C7.52312 35.0072 7.38379 31.8414 7.38379 28.6757C7.38379 25.5099 7.52312 22.3442 7.78189 19.258C7.86151 18.3223 8.57809 17.5657 9.49371 17.4263C14.3505 16.7095 19.4859 16.3312 24.7408 16.3312C29.9958 16.3312 35.1312 16.6896 39.988 17.4263C40.9235 17.5657 41.6202 18.3223 41.6998 19.258C41.9586 22.3243 42.0979 25.49 42.0979 28.6757C42.0979 31.8414 41.9586 35.0072 41.6998 38.0933C41.6202 39.0291 40.9037 39.7857 39.988 39.925C35.1113 40.6219 29.9958 41.0002 24.7408 41.0002ZM10.4093 37.3168C14.9874 37.9738 19.8044 38.2924 24.7408 38.2924C29.6773 38.2924 34.4943 37.9539 39.0724 37.3168C39.3113 34.4895 39.4108 31.5826 39.4108 28.6757C39.4108 25.7688 39.2913 22.8618 39.0724 20.0346C34.4943 19.3775 29.6773 19.0589 24.7408 19.0589C19.8044 19.0589 14.9874 19.3974 10.4093 20.0346C10.1705 22.8618 10.071 25.7688 10.071 28.6757C10.071 31.5826 10.1705 34.4895 10.4093 37.3168Z" fill="#293840"/>
<path opacity="0.1" d="M37.3411 30.2283C37.4009 29.0934 37.4406 28.2372 37.4406 26.6643C37.4406 24.6534 37.381 23.8172 37.2814 22.0651C37.2615 21.7266 37.0028 21.4279 36.6445 21.3881C32.8028 20.95 28.8019 20.731 24.7414 20.731C20.6608 20.731 16.6798 20.95 12.8382 21.3881C12.4998 21.4279 12.2211 21.7067 12.2012 22.0651C12.1017 23.8172 12.042 24.6534 12.042 26.6643C12.042 28.2372 12.0818 29.0934 12.1415 30.2283C18.2921 31.3632 31.1905 31.3632 37.3411 30.2283Z" fill="#91FAFF"/>
<path d="M31.1706 28.2771C32.138 28.2771 32.9222 27.4927 32.9222 26.525C32.9222 25.5573 32.138 24.7729 31.1706 24.7729C30.2032 24.7729 29.4189 25.5573 29.4189 26.525C29.4189 27.4927 30.2032 28.2771 31.1706 28.2771Z" fill="black"/>
<path d="M24.7409 28.2771C25.7083 28.2771 26.4925 27.4927 26.4925 26.525C26.4925 25.5573 25.7083 24.7729 24.7409 24.7729C23.7735 24.7729 22.9893 25.5573 22.9893 26.525C22.9893 27.4927 23.7735 28.2771 24.7409 28.2771Z" fill="black"/>
<path d="M18.3122 28.2771C19.2796 28.2771 20.0638 27.4926 20.0638 26.5249C20.0638 25.5573 19.2796 24.7728 18.3122 24.7728C17.3448 24.7728 16.5605 25.5573 16.5605 26.5249C16.5605 27.4926 17.3448 28.2771 18.3122 28.2771Z" fill="black"/>
<path d="M31.1706 28.3965C32.138 28.3965 32.9222 27.612 32.9222 26.6443C32.9222 25.6767 32.138 24.8923 31.1706 24.8923C30.2032 24.8923 29.4189 25.6767 29.4189 26.6443C29.4189 27.612 30.2032 28.3965 31.1706 28.3965Z" fill="#EFD165"/>
<path d="M24.7409 28.3965C25.7083 28.3965 26.4925 27.612 26.4925 26.6443C26.4925 25.6767 25.7083 24.8923 24.7409 24.8923C23.7735 24.8923 22.9893 25.6767 22.9893 26.6443C22.9893 27.612 23.7735 28.3965 24.7409 28.3965Z" fill="#EFD165"/>
<path d="M18.3122 28.3971C19.2796 28.3971 20.0638 27.6126 20.0638 26.6449C20.0638 25.6773 19.2796 24.8928 18.3122 24.8928C17.3448 24.8928 16.5605 25.6773 16.5605 26.6449C16.5605 27.6126 17.3448 28.3971 18.3122 28.3971Z" fill="#EFD165"/>
<path d="M23.7055 36.9979C24.0353 36.9979 24.3027 36.7304 24.3027 36.4006C24.3027 36.0707 24.0353 35.8033 23.7055 35.8033C23.3757 35.8033 23.1084 36.0707 23.1084 36.4006C23.1084 36.7304 23.3757 36.9979 23.7055 36.9979Z" fill="#91FAFF"/>
<path d="M25.7564 36.9979C26.0861 36.9979 26.3535 36.7304 26.3535 36.4006C26.3535 36.0707 26.0861 35.8033 25.7564 35.8033C25.4266 35.8033 25.1592 36.0707 25.1592 36.4006C25.1592 36.7304 25.4266 36.9979 25.7564 36.9979Z" fill="#91FAFF"/>
<path d="M22.6909 35.1867C23.0207 35.1867 23.288 34.9193 23.288 34.5894C23.288 34.2595 23.0207 33.9921 22.6909 33.9921C22.3611 33.9921 22.0938 34.2595 22.0938 34.5894C22.0938 34.9193 22.3611 35.1867 22.6909 35.1867Z" fill="#91FAFF"/>
<path d="M24.7407 35.1863C25.0705 35.1863 25.3378 34.9188 25.3378 34.589C25.3378 34.2591 25.0705 33.9917 24.7407 33.9917C24.4109 33.9917 24.1436 34.2591 24.1436 34.589C24.1436 34.9188 24.4109 35.1863 24.7407 35.1863Z" fill="#91FAFF"/>
<path d="M26.771 35.1863C27.1007 35.1863 27.3681 34.9188 27.3681 34.589C27.3681 34.2591 27.1007 33.9917 26.771 33.9917C26.4411 33.9917 26.1738 34.2591 26.1738 34.589C26.1738 34.9188 26.4411 35.1863 26.771 35.1863Z" fill="#91FAFF"/>
<path d="M23.7055 36.9381C24.0353 36.9381 24.3027 36.6706 24.3027 36.3408C24.3027 36.0109 24.0353 35.7435 23.7055 35.7435C23.3757 35.7435 23.1084 36.0109 23.1084 36.3408C23.1084 36.6706 23.3757 36.9381 23.7055 36.9381Z" fill="#293840"/>
<path d="M25.7564 36.9381C26.0861 36.9381 26.3535 36.6706 26.3535 36.3408C26.3535 36.0109 26.0861 35.7435 25.7564 35.7435C25.4266 35.7435 25.1592 36.0109 25.1592 36.3408C25.1592 36.6706 25.4266 36.9381 25.7564 36.9381Z" fill="#293840"/>
<path d="M22.6909 35.1067C23.0207 35.1067 23.288 34.8393 23.288 34.5094C23.288 34.1795 23.0207 33.9121 22.6909 33.9121C22.3611 33.9121 22.0938 34.1795 22.0938 34.5094C22.0938 34.8393 22.3611 35.1067 22.6909 35.1067Z" fill="#293840"/>
<path d="M24.7407 35.1065C25.0705 35.1065 25.3378 34.8391 25.3378 34.5092C25.3378 34.1793 25.0705 33.9119 24.7407 33.9119C24.4109 33.9119 24.1436 34.1793 24.1436 34.5092C24.1436 34.8391 24.4109 35.1065 24.7407 35.1065Z" fill="#293840"/>
<path d="M26.771 35.1065C27.1007 35.1065 27.3681 34.8391 27.3681 34.5092C27.3681 34.1793 27.1007 33.9119 26.771 33.9119C26.4411 33.9119 26.1738 34.1793 26.1738 34.5092C26.1738 34.8391 26.4411 35.1065 26.771 35.1065Z" fill="#293840"/>
<path d="M45.243 25.3902C45.0837 24.4146 44.2477 23.6978 43.2524 23.6978H41.9985C41.9388 22.2046 41.8392 20.7312 41.6999 19.2578C41.6203 18.322 40.9037 17.5654 39.9881 17.4261C37.5398 17.0677 35.0317 16.7889 32.4839 16.6098V15.6342C32.4839 14.3201 31.5484 13.205 30.2346 12.9662C28.702 12.7073 27.1295 12.5679 25.557 12.5281L24.522 10.6167L25.756 10.0194L26.4328 9.68092L26.2736 9.12341L25.5968 6.65455C26.8508 6.33599 27.7864 5.221 27.7864 3.8671C27.7864 2.27426 26.4925 1 24.9201 1C23.3277 1 22.0537 2.29418 22.0537 3.8671C22.0537 5.30065 23.1087 6.49527 24.4822 6.71428L24.6613 8.64557L22.631 9.06374L21.4566 9.30262L21.9741 10.5968L22.7703 12.5679C21.5761 12.6277 20.4017 12.767 19.2472 12.9662C17.9533 13.1852 16.9979 14.3001 16.9979 15.6342V16.6098C14.4501 16.7889 11.9421 17.0677 9.49375 17.4261C8.55822 17.5654 7.86155 18.322 7.78193 19.2578C7.6625 20.7113 7.56298 22.2046 7.48336 23.6978H6.22935C5.23411 23.6978 4.3981 24.4146 4.23886 25.3902C4.07962 26.3061 4 27.2419 4 28.1777C4 29.1334 4.07962 30.0692 4.23886 30.9652C4.3981 31.9408 5.23411 32.6576 6.22935 32.6576H7.44355C7.50326 34.4893 7.62269 36.3011 7.78193 38.0732C7.86155 39.009 8.57813 39.7656 9.49375 39.9049C14.3505 40.6217 19.486 41 24.7409 41C29.9958 41 35.1312 40.6416 39.9881 39.9049C40.9236 39.7656 41.6203 39.009 41.6999 38.0732C41.8591 36.3011 41.9587 34.4893 42.0383 32.6576H43.2524C44.2477 32.6576 45.0837 31.9408 45.243 30.9652C45.4022 30.0493 45.4818 29.1135 45.4818 28.1777C45.4818 27.2419 45.4022 26.3061 45.243 25.3902ZM6.80659 29.9696C6.72697 29.3923 6.68716 28.795 6.68716 28.1777C6.68716 27.5605 6.72697 26.9831 6.80659 26.3858H7.38383C7.36393 27.1424 7.36393 27.899 7.36393 28.6555C7.36393 29.0936 7.36393 29.5117 7.36393 29.9497H6.80659V29.9696ZM23.3874 3.90691C23.3874 3.07068 24.0641 2.37382 24.9201 2.37382C25.7759 2.37382 26.4527 3.05077 26.4527 3.90691C26.4527 4.76306 25.7759 5.44002 24.9201 5.44002C24.0641 5.44002 23.3874 4.74315 23.3874 3.90691ZM19.6851 15.654C22.9495 15.0966 26.5124 15.0966 29.7769 15.654V16.4704C28.1048 16.3908 26.4328 16.3509 24.721 16.3509C23.0291 16.3509 21.3371 16.3908 19.6652 16.4704L19.6851 15.654ZM39.0525 37.3166C34.4744 37.9736 29.6574 38.2922 24.721 38.2922C19.7846 38.2922 14.9676 37.9537 10.3895 37.3166C10.1506 34.4893 10.0511 31.5824 10.0511 28.6755C10.0511 25.7685 10.1705 22.8616 10.3895 20.0344C14.9676 19.3773 19.7846 19.0588 24.721 19.0588C29.6574 19.0588 34.4744 19.3972 39.0525 20.0344C39.2914 22.8616 39.3909 25.7685 39.3909 28.6755C39.4108 31.5824 39.2914 34.4893 39.0525 37.3166ZM42.6752 29.9696H42.0979C42.0979 29.5316 42.0979 29.1135 42.0979 28.6755C42.0979 27.9189 42.0979 27.1623 42.0781 26.4056H42.6553C42.735 26.9831 42.7747 27.5804 42.7747 28.1976C42.7747 28.8148 42.735 29.3923 42.6752 29.9696Z" fill="#293840"/>
</svg>
