<?xml version="1.0" encoding="utf-8"?>
<svg version="1.1" xmlns="http://www.w3.org/2000/svg" xmlns:xlink="http://www.w3.org/1999/xlink"
	 x="0px" y="0px" viewBox="0 0 628 524" style="enable-background:new 0 0 628 524;" xml:space="preserve">
<style type="text/css">
	.st0{fill:transparent;}
	.st1{fill:#86C0C4;}
	.st2{fill:#4D888B;}
	.st3{fill:#F3D154;}
	.st4{fill:#2F666A;}
	.st5{fill:url(#SVGID_1_);}
	.st6{fill:#E3A528;}
	.st7{fill:#282E53;}
	.st8{fill:#F6DA77;}
	.st9{fill:#E7B48F;}
	.st10{fill:#DF9F86;}
	.st11{fill:#243E5D;}
	.st12{fill:url(#SVGID_2_);}
	.st13{fill:url(#SVGID_3_);}
	.st14{fill:url(#SVGID_4_);}
	.st15{fill:#DC8F2A;}
	.st16{fill:#A6CEC6;}
	.st17{fill:url(#SVGID_5_);}
	.st18{fill:url(#SVGID_6_);}
</style>
<rect x="0" class="st0" width="628" height="524"/>
<g>
	<path class="st1" d="M494.53,106.8c-1.17-1.51-8.32-3.07-16.5-3.22c-1.81-6.81-4.59-13.22-8.2-19.08
		c5.25-4.85,10.28-10.52,9.7-14.01c-1.17-7.09-16.53-19.16-19.55-19.55c-1.93-0.25-8.29,3.86-14.26,9.7
		c-5.83-3.51-12.21-6.21-18.97-7.95c0.28-7.16-0.16-14.76-3.05-16.83c-5.84-4.18-25.23-1.86-27.64,0
		c-1.51,1.17-3.06,8.28-3.22,16.42c-6.98,1.6-13.57,4.23-19.61,7.71c-4.73-5.04-10.12-9.69-13.49-9.14
		c-7.09,1.17-19.16,16.53-19.55,19.55c-0.23,1.8,3.3,7.42,8.5,13c-3.94,6.15-6.98,12.93-8.9,20.17c-6.47-0.11-12.82,0.51-14.68,3.11
		c-4.18,5.84-1.86,25.23,0,27.64c1.05,1.36,6.9,2.75,13.99,3.13c1.69,7.62,4.58,14.8,8.49,21.29c-4.35,4.31-7.98,8.9-7.48,11.89
		c1.17,7.09,16.53,19.16,19.55,19.55c1.66,0.21,6.59-2.8,11.74-7.36c6.52,4.02,13.73,7.02,21.42,8.79
		c-0.03,6.1,0.66,11.88,3.12,13.64c5.84,4.18,25.23,1.86,27.64,0c1.36-1.05,2.76-6.93,3.13-14.04c7.44-1.91,14.4-5,20.7-9.03
		c4.47,4.61,9.35,8.6,12.48,8.08c7.09-1.17,19.16-16.53,19.55-19.55c0.23-1.81-3.34-7.47-8.58-13.09
		c3.57-6.18,6.23-12.94,7.83-20.11c6.85,0.2,13.85-0.33,15.82-3.08C498.71,128.6,496.39,109.2,494.53,106.8z M408.92,153.92
		c-17.66,0-31.97-14.31-31.97-31.97c0-17.66,14.31-31.97,31.97-31.97c17.66,0,31.97,14.31,31.97,31.97
		C440.89,139.61,426.58,153.92,408.92,153.92z"/>
	<g>
		<path class="st0" d="M409.18,166.74c-25.09,0-45.5-20.41-45.5-45.5c0-25.09,20.41-45.5,45.5-45.5c25.09,0,45.5,20.41,45.5,45.5
			C454.68,146.33,434.27,166.74,409.18,166.74z M409.18,76.39c-24.73,0-44.85,20.12-44.85,44.85c0,24.73,20.12,44.85,44.85,44.85
			c24.73,0,44.85-20.12,44.85-44.85C454.03,96.51,433.91,76.39,409.18,76.39z"/>
	</g>
	<g>
		<path class="st0" d="M473.75,108.08c-0.3-0.03-0.6-0.07-0.9-0.12c1.01,4.55,1.56,9.28,1.56,14.13c0,35.97-29.26,65.23-65.23,65.23
			c-23.55,0-44.23-12.55-55.7-31.31c0,0,0,0-0.01,0c-0.29,0.06-0.59,0.12-0.88,0.16c11.58,19.16,32.61,31.99,56.59,31.99
			c36.44,0,66.08-29.64,66.08-66.08C475.26,117.28,474.73,112.6,473.75,108.08z"/>
		<path class="st0" d="M369.29,70.52c11.04-8.56,24.87-13.67,39.88-13.67c0.29,0,0.58,0.02,0.88,0.02c-0.1-0.28-0.19-0.57-0.28-0.85
			c-0.2,0-0.39-0.02-0.59-0.02c-15.15,0-29.11,5.13-40.27,13.74C369.04,70,369.17,70.26,369.29,70.52z"/>
	</g>
</g>
<g>
	<path class="st2" d="M541.1,231.67c-0.78-1.01-5.58-2.06-11.05-2.16c-1.21-4.56-3.08-8.86-5.49-12.78c3.52-3.25,6.88-7.05,6.5-9.39
		c-0.78-4.75-11.07-12.83-13.09-13.09c-1.29-0.17-5.55,2.59-9.55,6.5c-3.91-2.35-8.18-4.16-12.71-5.33
		c0.19-4.8-0.11-9.89-2.04-11.27c-3.91-2.8-16.9-1.25-18.51,0c-1.01,0.78-2.05,5.55-2.16,11c-4.68,1.07-9.09,2.83-13.13,5.17
		c-3.17-3.38-6.78-6.49-9.03-6.12c-4.75,0.78-12.83,11.07-13.09,13.09c-0.15,1.2,2.21,4.97,5.69,8.71
		c-2.64,4.12-4.67,8.66-5.96,13.51c-4.33-0.07-8.59,0.34-9.83,2.08c-2.8,3.91-1.25,16.9,0,18.51c0.7,0.91,4.62,1.84,9.37,2.1
		c1.13,5.11,3.07,9.91,5.68,14.26c-2.91,2.88-5.34,5.96-5.01,7.96c0.78,4.75,11.07,12.83,13.09,13.09c1.11,0.14,4.42-1.87,7.87-4.93
		c4.37,2.7,9.2,4.7,14.35,5.88c-0.02,4.09,0.44,7.96,2.09,9.14c3.91,2.8,16.9,1.25,18.51,0c0.91-0.7,1.85-4.64,2.1-9.41
		c4.98-1.28,9.65-3.35,13.86-6.05c3,3.09,6.26,5.76,8.36,5.41c4.75-0.78,12.83-11.07,13.09-13.09c0.16-1.21-2.24-5.01-5.75-8.77
		c2.39-4.14,4.18-8.67,5.24-13.47c4.59,0.14,9.28-0.22,10.6-2.06C543.9,246.28,542.35,233.29,541.1,231.67z M483.76,263.24
		c-11.83,0-21.41-9.59-21.41-21.42c0-11.83,9.59-21.41,21.41-21.41c11.83,0,21.42,9.59,21.42,21.41
		C505.18,253.65,495.59,263.24,483.76,263.24z"/>
	<g>
		<path class="st0" d="M483.93,271.83c-16.8,0-30.48-13.67-30.48-30.48c0-16.8,13.67-30.48,30.48-30.48
			c16.8,0,30.48,13.67,30.48,30.48C514.41,258.15,500.74,271.83,483.93,271.83z M483.93,211.31c-16.57,0-30.04,13.48-30.04,30.04
			c0,16.57,13.48,30.04,30.04,30.04c16.57,0,30.04-13.48,30.04-30.04C513.98,224.78,500.5,211.31,483.93,211.31z"/>
	</g>
	<g>
		<path class="st0" d="M527.18,232.53c-0.2-0.02-0.4-0.05-0.6-0.08c0.68,3.05,1.04,6.21,1.04,9.47c0,24.09-19.6,43.69-43.69,43.69
			c-15.78,0-29.62-8.4-37.31-20.97c0,0,0,0,0,0c-0.2,0.04-0.39,0.08-0.59,0.11c7.76,12.83,21.84,21.43,37.9,21.43
			c24.41,0,44.26-19.86,44.26-44.26C528.2,238.7,527.84,235.56,527.18,232.53z"/>
		<path class="st0" d="M457.22,207.38c7.39-5.73,16.66-9.15,26.72-9.15c0.2,0,0.39,0.01,0.59,0.01c-0.07-0.19-0.13-0.38-0.19-0.57
			c-0.13,0-0.26-0.01-0.4-0.01c-10.14,0-19.5,3.44-26.97,9.2C457.05,207.03,457.14,207.2,457.22,207.38z"/>
	</g>
</g>
<g>
	<g>
		<path class="st3" d="M297.83,172.36c0,0,45.62-75.27,7.03-126.94c-106.84,29.93-77.13,134.92-77.13,134.92L297.83,172.36z"/>
		<path class="st0" d="M304.86,45.43c-0.37,0.1-0.74,0.21-1.1,0.32l-29.89,99.31l-34.45-54.74c-0.38,0.61-0.76,1.22-1.13,1.84
			l34.83,55.36l-8.62,28.66l2.09-0.24l17.19-57.12v0l35.85-10.96c0.08-0.69,0.15-1.39,0.22-2.09l-35.4,10.82l21.11-70.16
			C305.33,46.09,305.1,45.75,304.86,45.43L304.86,45.43z"/>
	</g>
	<g>
		<path class="st2" d="M281.22,166.78c0,0-5.19-101.09-70.29-127.52c-57.03,47.58-13.64,119.25-13.64,119.25l61.92,45.36
			L281.22,166.78z"/>
		<path class="st4" d="M260.06,87l-25.24,29.63l-22.53-76.82c-0.45-0.18-0.9-0.37-1.35-0.55c-0.22,0.19-0.43,0.38-0.66,0.57
			l12.07,41.14l-32.77-15.29c-0.15,0.31-0.3,0.62-0.44,0.92l-0.38,0.82l34.32,16.01l20.11,68.57l-58.36-25
			c0.2,0.8,0.4,1.59,0.61,2.36l58.46,25.04l14.28,48.69l1.05,0.77l0.67-1.79l-24.41-83.23l25.55-30
			C260.71,88.23,260.39,87.62,260.06,87z"/>
	</g>
	<g>
		<path class="st1" d="M261.87,183.31c0,0-60.53-58.16-106.27-40.03c-17.71,98.9,106.83,128.41,106.83,128.41L261.87,183.31z"/>
		<g>
			<linearGradient id="SVGID_1_" gradientUnits="userSpaceOnUse" x1="155.4061" y1="191.3203" x2="258.5484" y2="191.3203">
				<stop  offset="0" style="stop-color:#CAE3EE"/>
				<stop  offset="1" style="stop-color:#E4EFEA"/>
			</linearGradient>
			<path class="st5" d="M155.6,143.28c-0.07,0.38-0.13,0.76-0.19,1.14l72.87,67.34l-53.39,8.11c0.48,0.58,0.96,1.16,1.45,1.73
				l53.76-8.16l28.46,26.3l-0.36-2.97l-55.41-51.21l-1.83-41.02c-0.65-0.25-1.31-0.48-1.97-0.71l1.78,39.87l-44.15-40.8
				C156.28,143.03,155.94,143.15,155.6,143.28L155.6,143.28z"/>
		</g>
	</g>
</g>
<g>
	<g>
		<g>
			<path class="st6" d="M450.01,277c0,0-154.74,24.45-231.91,3.35c-13.61-52.53,0-158.41,0-158.41h231.91V277z"/>
		</g>
		<path class="st7" d="M452.48,122.59H216.83c-2.27,0-4.13-1.86-4.13-4.13l0,0c0-2.27,1.86-4.13,4.13-4.13h235.65
			c2.27,0,4.13,1.86,4.13,4.13l0,0C456.61,120.73,454.75,122.59,452.48,122.59z"/>
	</g>
	<g>
		<g>
			<g>
				<polygon class="st8" points="412.94,256.89 247.05,256.89 247.05,142.62 249.7,142.62 249.7,254.24 412.94,254.24 				"/>
			</g>
		</g>
	</g>
</g>
<g>
	<g>
		<polygon class="st9" points="233.52,216.01 235.84,227.04 247.43,223.84 239.85,208.02 		"/>
		<g>
			<path class="st9" d="M230.62,219.09c-1.34,0.39-2.64,0.58-3.45,0.26c-5.61-4.35-6.05-20.78-6.05-20.78l5.3-4.54l9.34,2.37
				l3.66,9.93c0.98,2.65,0.51,5.64-1.26,8.06l0,0C236.15,216.57,233.54,218.24,230.62,219.09z"/>
		</g>
		<path class="st7" d="M236.37,202.51c-0.97-1.56-1.99-5.53-3.62-4.7c-1.19,0.61-5.44,2.16-6.89,2.62
			c-3.45,1.1-10.04,1.72-11.72-3.54c-0.84-2.63,0.99-5.71,2.39-6.9c1.37-1.17,3.17-1.71,4.97-1.66c4.23,0.11,10.21,1.44,12.09,0.39
			c3.17-1.76,7.18-0.85,8.05,2.04c0.93,3.09,0.8,8.22,0.23,11.64c-0.33,1.98-1.01,3.87-2.01,5.61l0,0L236.37,202.51z"/>
		<path class="st9" d="M239.99,201.77c-0.99-0.43-2.39,0.15-3.13,1.31c-0.74,1.16-0.54,2.45,0.45,2.89
			c0.99,0.43,2.39-0.15,3.13-1.31C241.18,203.5,240.98,202.21,239.99,201.77z"/>
	</g>
	<path class="st2" d="M242.4,221.39c21.57-1.21,23.4,17.98,25.21,38.83c2.08,23.92,0.47,50.04,0.47,50.04h-50.19
		c0,0,0.01-22.23,0.54-44.46C218.93,244.23,219.6,222.66,242.4,221.39z"/>
	<path class="st10" d="M220.58,299.26c0,0-4.93-3.4-6.76-2.59c-1.83,0.81-0.39,4.24-0.39,4.24L220.58,299.26z"/>
	<path class="st9" d="M255.89,262.93l2.35,15.9l-38.44,19.16l4.19,4.16c0,0,43.16-7.77,49.26-13.47c6.1-5.7,1.88-28.5,1.88-28.5
		L255.89,262.93z"/>
	<path class="st10" d="M212.85,288.03c-8.8-3.11-3.43-33.38-3.43-33.38l5.2-0.05C214.62,254.6,221.65,291.14,212.85,288.03z"/>
	<path class="st9" d="M226.33,301.34l-9.05,5.82c-3.64,1.67-6.87-0.94-9.49-4.63c-1.63-2.29,0.03-5.43,2.84-5.39
		c3.26,0.05,7.21,0.71,9.17,0.85L226.33,301.34z"/>
	<path class="st2" d="M208.04,254.67l6.15,3.69c0,0,25.93-41.94,13.11-30.9C213.92,238.98,208.04,254.67,208.04,254.67z"/>
	<g>
		<path class="st7" d="M238.53,450.85c0,0-0.03,6.01-12.1,9.62c-2.48,0.74-1.67,1.47-2.14,2.51c3.96,0,13.89,0,13.89,0l5.44-6.11
			l1.69,1.45l3.92-3.85c0,0-1.83-5.58-4.82-5.63C241.96,449.68,238.53,450.85,238.53,450.85z"/>
		<path class="st9" d="M236.28,445.64l2.26,5.2l0,0c2.05,0.59,4.26-0.08,5.64-1.72l0.25-0.29l-1.82-5.35L236.28,445.64z"/>
	</g>
	<path class="st2" d="M275.12,260.17c0,0-8.23-38.29-27.69-37.41c-19.46,0.89,8.46,40.16,8.46,40.16L275.12,260.17z"/>
	<path class="st9" d="M212.96,288.68c-12.2-9.85,11.76-61.33,11.76-61.33l5.81,0.58C230.53,227.93,230.09,296.19,212.96,288.68z"/>
	<polygon class="st4" points="233.52,223.28 234.25,219.51 244.22,217.53 247.43,221.51 	"/>
	<path class="st9" d="M224.73,227.34l-0.74-9.82c0,0,4.9-7.51,9.53-5.49c0.85,2.06-0.63,6.2-0.63,6.2l-2.36,9.69L224.73,227.34z"/>
	<path class="st7" d="M217.89,310.25c0,0-6.99,43.86-5.35,64.15c1.64,20.29,23.88,73.3,23.88,73.3l9.68-2.81
		c0,0,0.73-35.46-8.77-58.74c-2.08-5.11-1.99-10.83-0.01-15.98c7.8-20.21,10.85-33.64,10.85-33.64l-0.74-26.27H217.89z"/>
	<g>
		<path class="st10" d="M225.34,226.93l-0.17-0.02l-0.7-9.26c0.65-0.95,4.82-6.71,8.68-5.27c0.51,1.6-0.32,4.63-0.72,5.74
			l-0.03,0.11c0.33-0.09,0.67-0.14,1.03-0.17c0.33-1.03,1.29-4.34,0.52-6.22l-0.07-0.17l-0.17-0.08c-4.93-2.14-9.9,5.35-10.11,5.67
			l-0.09,0.13l0.78,10.37l0.57,0.06C224.99,227.52,225.16,227.22,225.34,226.93z"/>
	</g>
	<g>
		<path class="st7" d="M257.38,454.03c0,0-4.33,4.02-14.21,6.53c-2.17,0.55-4.52-0.19-4.52,3.4c4.61,0,11.99,0,11.99,0l9.97-1.72
			v1.72h5.38c0,0,1.5-8.81-1.65-9.94C261.43,454.03,257.38,454.03,257.38,454.03z"/>
		<path class="st9" d="M258.44,447.7l-1.06,6.33l0,0c1.96,1.36,4.54,1.45,6.6,0.22l0.37-0.22l-0.54-6.33H258.44z"/>
	</g>
	<path class="st11" d="M232.66,310.25l23.29,139.32h9.32c0,0,8.03-37.53,1.83-67.84c-1.08-5.26-1.21-10.68-0.41-15.98
		c5.9-39.13,1.4-55.5,1.4-55.5H232.66z"/>
</g>
<g>
	<polygon class="st4" points="376.12,463.46 384.86,378.83 381.8,378.15 372.98,463.46 	"/>
</g>
<path class="st1" d="M438.89,369.55c0,0,26.2-60.09,8.06-77.47c-10.77-10.32-30.82-8.82-45.33-5.9
	c-10.03,2.02-17.27,10.79-17.27,21.03v61.6L438.89,369.55z"/>
<path class="st4" d="M382.36,293.2c3.98-5.22,9.49-9.12,15.79-10.94c4.28-1.23,9.78-2.17,16.64-2.17c0.55,0,1.1,0.01,1.63,0.02
	c12.96,0.39,23.53,8.19,29.25,19.83l3.45,9.58l-15.17,4.9l-3.3-7.25l2.53,36h-42.21l0.44-41.43l-14.68,0.26L382.36,293.2z"/>
<path class="st9" d="M448.55,309.72c0,0,6.39,12.49,3.28,16.89c-3.11,4.4-44.5-4.92-44.5-4.92v-5.44l31.29,2.07l-3.9-4.13
	L448.55,309.72z"/>
<path class="st9" d="M372.97,314.19c0,0-10.09,6.55-10.09,11.5c-0.01,4.95,18.47,1.2,18.47,1.2L372.97,314.19z"/>
<g>
	<path class="st10" d="M407.55,276.17l-0.77,5.79c0,0-0.33,3,5.03,3c2.18,0,3.59-0.5,4.49-1.09c1.04-0.68,1.55-1.93,1.39-3.15
		l-1.66-12.46L407.55,276.17z"/>
	<path class="st9" d="M406.21,276.77c-1.51,0.26-2.95,0.31-3.82-0.19c-5.76-6.01-4.67-25.63-4.67-25.63l16.3-0.43l3.08,12.36
		c0.82,3.3,0.02,6.79-2.15,9.41l0,0C412.52,274.58,409.5,276.19,406.21,276.77z"/>
	<path class="st7" d="M393.54,247.94c2.12-2.38,5.48-2.86,7.08-1.93c1.18,0.69,5.27-6.06,13.38-5.55
		c5.57,0.34,13.01,8.98,3.87,26.11c-0.6-1.91-4.75-12.45-7.56-10.5c-2.67,2.32-5.68,3.31-8.08,3.71c-3.13,0.53-7.55-1.21-9.44-3.76
		C391.2,253.88,390.45,251.46,393.54,247.94z"/>
	<path class="st9" d="M417.02,257.76c-1.04-0.66-2.64-0.17-3.56,1.11c-0.92,1.27-0.83,2.84,0.22,3.5c1.04,0.66,2.64,0.17,3.56-1.11
		C418.16,259.99,418.06,258.42,417.02,257.76z"/>
	<path class="st7" d="M415.34,238.39c0,0,1.84-3.58,8.16-2.21c11.38,3.1,9.96,16.74,8.79,23.71c-0.62,3.7,0.33,7.48,2.64,10.43
		c5.63,7.18,14.03,20.99,2.88,28.88c-2.11,1.49-4.77,2.15-7.27,1.48c-2.44-0.65-3.96-2.19-4.9-3.8c-1.27-2.16-1.5-4.79-0.81-7.2
		c0.53-1.84,1.03-4.35,0.31-5.64c-1.21-2.17-8.18-6.4-8.64-12.97c-0.45-6.56,3.71-9.09,4.73-16.01c1.79-12.18-0.86-13.72-0.86-13.72
		L415.34,238.39z"/>
	<polygon class="st3" points="419.39,243.4 414,240.46 415.34,238.39 420.37,241.35 	"/>
</g>
<g>
	<polygon class="st4" points="444.85,465.85 447.92,465.16 438.93,378.15 435.86,378.83 	"/>
</g>
<path class="st3" d="M439.47,379.44H381.8l0,0c0-3.85,2.09-7.21,5.08-8.12c10.5-3.2,31.78-9.85,46.78-7.69
	c4.98,0.72,8.43,6.88,6.99,12.89C440.18,378.46,439.47,379.44,439.47,379.44z"/>
<g>
	<path class="st2" d="M330.66,458.68l-13.88-10.11c-2.03-1.08-4.6-1.88-6.5,0.01c0,0-1.27,1.24-2.25,2.68
		c-0.07,1.13,18.99,13.64,18.99,13.64l0.14-0.03C331.4,463.14,330.66,458.68,330.66,458.68z"/>
	<polygon class="st1" points="308.03,451.25 327.02,464.89 326.15,465.75 307.37,452.12 	"/>
	<g>
		<polygon class="st0" points="325.18,454.67 323.92,453.77 322.66,456.33 323.87,457.21 		"/>
	</g>
	<g>
		<polygon class="st0" points="322.5,452.72 321.24,451.82 319.97,454.38 321.19,455.26 		"/>
	</g>
	<path class="st9" d="M336.22,452.23l-5.56,6.46l0,0c-1.66-0.06-3.14-1.06-3.81-2.59l-0.12-0.28l1.38-4.07L336.22,452.23z"/>
</g>
<path class="st7" d="M410.39,369.24c0,0-16.52,24.18-41.09,35.23c-6.43,15.02-35.05,50.47-35.05,50.47l-6.04-3.28l51.96-89.83
	L410.39,369.24z"/>
<g>
	<path class="st2" d="M387.01,457.65l-17.17-0.03c-2.28,0.32-4.83,1.18-5.25,3.82c0,0-0.3,1.75-0.25,3.49
		c0.61,0.95,23.38-0.13,23.38-0.13l0.1-0.11C390.22,460.83,387.01,457.65,387.01,457.65z"/>
	<polygon class="st1" points="364.33,464.94 387.71,464.82 387.51,466.03 364.3,466.03 	"/>
	<g>
		<polygon class="st0" points="380.21,457.63 378.66,457.64 379.14,460.45 380.64,460.45 		"/>
	</g>
	<g>
		<polygon class="st0" points="376.89,457.63 375.35,457.64 375.83,460.45 377.33,460.45 		"/>
	</g>
	<path class="st9" d="M387.71,449.16l-0.7,8.49l0,0c-1.38,0.93-3.17,0.99-4.6,0.15l-0.26-0.15l-1.5-7.63L387.71,449.16z"/>
</g>
<path class="st11" d="M433.18,343.18v7.18c0,11.3-8.06,21.04-19.18,23.01c-10.02,1.78-23.32,1.92-38.31-3.61
	c14.21,24.51,12.43,81.89,12.43,81.89h-6.77l-30.21-91.86c-3.21-8.31,2.96-17.24,11.87-17.17L433.18,343.18z"/>
<g>
	<linearGradient id="SVGID_2_" gradientUnits="userSpaceOnUse" x1="396.239" y1="326.0901" x2="429.0355" y2="326.0901">
		<stop  offset="0" style="stop-color:#CAE3EE"/>
		<stop  offset="1" style="stop-color:#E4EFEA"/>
	</linearGradient>
	<rect x="415.12" y="324.54" class="st12" width="13.92" height="3.11"/>
</g>
<g>
	<linearGradient id="SVGID_3_" gradientUnits="userSpaceOnUse" x1="287.3459" y1="214.4636" x2="287.3459" y2="237.6584">
		<stop  offset="0" style="stop-color:#E4EFEA"/>
		<stop  offset="1" style="stop-color:#CAE3EE"/>
	</linearGradient>
	<polygon class="st13" points="308.38,236.76 266.31,236.76 265.72,222.52 308.97,222.52 	"/>
	<polygon class="st0" points="355.32,236.76 314.41,236.76 314.12,181.08 357.36,181.08 	"/>
	<linearGradient id="SVGID_4_" gradientUnits="userSpaceOnUse" x1="361.3199" y1="199.9947" x2="404.5642" y2="199.9947">
		<stop  offset="0" style="stop-color:#CAE3EE"/>
		<stop  offset="1" style="stop-color:#E4EFEA"/>
	</linearGradient>
	<polygon class="st14" points="401.05,236.76 361.32,236.76 361.32,163.23 404.56,163.23 	"/>
	<g>
		<g>
			<g>
				<polygon class="st15" points="402.74,149.13 358.85,201.24 342.39,190.82 301.13,236.72 311.21,236.72 343.93,199.43 
					360.35,209.99 408.01,153.56 				"/>
			</g>
			<polygon class="st15" points="393.21,151.27 409.28,161.47 413.07,138.46 			"/>
		</g>
		<g>
			<g>
				<polygon class="st3" points="401.51,148.53 357.92,200.29 341.43,189.92 299.36,236.72 309.46,236.72 342.69,198.84 
					359.32,209.3 406.77,152.96 				"/>
			</g>
			<polygon class="st3" points="391.97,150.67 408.05,160.88 411.83,137.86 			"/>
		</g>
		<polygon class="st15" points="411.83,137.86 413.07,138.46 412.74,140.45 411.43,140.3 		"/>
	</g>
</g>
<g>
	<polygon class="st11" points="234.62,274.68 237.73,277.91 234.41,296.95 231.27,298.77 	"/>
	<path class="st10" d="M101.29,298.88c0,0,14.56,28.93,23.44,30.58c8.88,1.65,49.29-12.97,49.29-12.97v-5.77l-40.41,0.97
		l-9.59-19.84L101.29,298.88z"/>
	<path class="st7" d="M117.05,263.65c-47.87,2.42-42.44,83.83-42.44,83.83h51.32C125.93,347.48,134.88,317.73,117.05,263.65z"/>
	<g>
		<path class="st7" d="M118.45,455.62c0,0,0.03,6.45,12.98,10.32c2.66,0.79,1.79,1.58,2.29,2.7c-4.25,0-14.91,0-14.91,0l-5.84-6.56
			l-1.81,1.56l-4.21-4.13c0,0,1.97-5.98,5.17-6.04C114.77,454.37,118.45,455.62,118.45,455.62z"/>
		<path class="st9" d="M121.88,447.72l-3.43,7.9l0,0c-2.21,0.63-4.57-0.09-6.06-1.84l-0.27-0.32l1.96-5.74H121.88z"/>
	</g>
	<g>
		<path class="st10" d="M108.18,250.59l-1.63,15.07c0,0,2.14,4.02,6.75,4.52c4.6,0.5,4.96-2.82,4.96-2.82l1.06-9.82l-6.62-2.51
			L108.18,250.59z"/>
		<path class="st9" d="M119.59,260.52c1.42,0.11,2.76,0.02,3.51-0.52c4.79-6.07,2.03-24.13,2.03-24.13l-15.12,1.06l-1.74,11.72
			c-0.46,3.13,0.59,6.29,2.83,8.52l0,0C113.56,259.05,116.5,260.28,119.59,260.52z"/>
		<path class="st7" d="M116.96,237.98c0,0,4.82,1.45,10.1,1.09c5.28-0.36,2.58-6.43,2.58-6.43s-4.02,1.34-10.73-0.41
			c-4.52-1.18-5.66-2.2-8.78-0.95c-4.23,1.7-4.05,9.05-4.05,9.05l0.56,15.55l0.85,1.08c0,0,1.17-10.08,1.5-13.18
			c1.02-1.32,1.96-1.22,2.64-0.79c0.74,0.47,1.1,1.37,1,2.24l-1.72,15.9c0,0,9.66,5.46,12.32,4.94c2.66-0.51,2.21-12.48,2.21-12.48
			s-2.83-1.61-5.41,0.72c-2.56,2.31-5.04-0.65-5.04-0.65L116.96,237.98z"/>
		<path class="st9" d="M110.39,242.47c1.15,0.03,2.12,1.24,2.18,2.7c0.06,1.46-0.83,2.62-1.98,2.59c-1.15-0.03-2.12-1.24-2.18-2.7
			C108.36,243.61,109.24,242.45,110.39,242.47z"/>
	</g>
	<path class="st7" d="M125.93,347.48c0,0,23.87,13.39,35.85,29.59c3.04,4.1,3.15,9.68,0.24,13.87
		c-17.29,24.93-40.16,57.92-40.16,57.92h-8.97c0,0,11.85-42.98,26.17-68.32C140.44,371.17,125.93,347.48,125.93,347.48z"/>
	<path class="st10" d="M174.02,310.72l7.23,1.16l6.78,7.35c0,0-3.31,1.6-8.26-3.53c-9.79-0.69-7.13-2.45-7.13-2.45L174.02,310.72z"
		/>
	<path class="st9" d="M93.61,307.4c0,0,14.56,28.93,23.44,30.58c8.88,1.65,47.71-17.33,47.71-17.33l1.59-6.23l-40.41,5.79
		l-9.59-19.84L93.61,307.4z"/>
	<g>
		<path class="st7" d="M181.86,459.11c0,0,4.16,3.85,13.63,6.27c2.09,0.53,4.33-0.18,4.33,3.26c-4.42,0-11.5,0-11.5,0l-9.56-1.65
			v1.65h-5.16c0,0-1.44-8.45,1.58-9.53C177.98,459.11,181.86,459.11,181.86,459.11z"/>
		<path class="st9" d="M180.85,453.04l1.02,6.07l0,0c-1.88,1.31-4.36,1.39-6.33,0.21l-0.35-0.21l-1.5-6.07H180.85z"/>
	</g>
	<path class="st9" d="M181.63,317.58c0.05-0.67-0.34-1.29-0.96-1.53l-6.05-2.36c-1.5-0.58-3.16-0.59-4.66-0.03l-5.98,1.17
		l-0.64,1.07l-0.42,5.51c1.16-0.48,1.84-0.77,1.84-0.77l3.84-0.49c0,0,8.25,5.58,10.92-0.8c1.11,6.17,2.85,5.42,2.85,5.42
		L181.63,317.58z"/>
	<path class="st11" d="M74.6,347.48c0,0-7.47,31.42,61.4,42.22c4.79,0.75,8.62,4.32,9.81,9.01c5.91,23.33,27.65,56.76,27.65,56.76
		h8.9l-14.44-63.75c-1.03-4.57-3.43-8.71-6.88-11.88l-35.13-32.36H74.6z"/>
	<g>
		<g>
			<polygon class="st4" points="117.6,471.04 106.01,386.65 103.9,386.94 115.44,471.04 			"/>
		</g>
		<g>
			<g>
				<path class="st1" d="M120.85,386.79H70.08c0,0,0-3.56,0-9.97c17.81-8.19,50.77,4.99,50.77,4.99V386.79z"/>
				<g>
					<path class="st4" d="M70.08,385.72v-2.14c-0.28,0-7.12-0.22-7.12-11.4c0-12.11,7.57-30.46,7.65-30.65l-1.97-0.82
						c-0.32,0.77-7.81,18.93-7.81,31.47C60.82,385.57,69.99,385.72,70.08,385.72z"/>
				</g>
				<path class="st3" d="M81.83,344.05c-12.47-2.92-14.02-1.27-14.02-1.27s3.83-14.75,0.18-23.55c15.29-8.83,18.12,1.67,18.12,1.67
					S88.75,329.82,81.83,344.05z"/>
			</g>
			<g>
				<polygon class="st4" points="65.08,471.04 76.63,386.94 74.51,386.65 62.93,471.04 				"/>
			</g>
		</g>
	</g>
	<g>
		<path class="st1" d="M507.9,330.74H156.63l0,0c0-2.22,2.87-4.02,6.42-4.02h338.44C505.03,326.72,507.9,328.52,507.9,330.74
			L507.9,330.74z"/>
		<g>
			<polygon class="st4" points="158.68,471.04 156.22,470.61 167.52,330.59 169.98,331.02 			"/>
		</g>
		<g>
			<polygon class="st4" points="506.69,471.04 509.15,470.61 497.85,330.59 495.39,331.02 			"/>
		</g>
	</g>
	<rect x="169.98" y="324.8" class="st11" width="23.08" height="1.92"/>
	<g>
		<path class="st11" d="M217.83,326.31h-16.37v-2.48h16.37c4.42,0,8.21-3.3,8.81-7.68l11.2-69.01l2.45,0.4l-11.19,68.98
			C228.33,322.08,223.49,326.31,217.83,326.31z"/>
	</g>
	<polygon class="st16" points="237.84,247.13 236.17,248.43 225.64,311.59 227.11,313.24 	"/>
</g>
<circle class="st0" cx="284.67" cy="313.24" r="1.75"/>
<g>
	<g>
		<path class="st10" d="M495.14,246.46c-4.9,16.29-4.2,74.45-4.2,74.45h-7.68c-1.27,0-2.53,0.3-3.65,0.89l-9.55,4.93h18.7
			c3.7,0,6.89-2.63,7.58-6.27l10.79-56.23C507.14,264.23,500.04,230.17,495.14,246.46z"/>
		<g>
			<polygon class="st10" points="489.65,244.47 493.53,254.96 504.44,250.13 494.7,235.7 			"/>
			<g>
				<path class="st9" d="M487.25,247.91c-1.26,0.58-2.5,0.95-3.35,0.76c-6.14-3.46-8.96-19.52-8.96-19.52l4.55-5.22l9.51,0.97
					l5.04,9.22c1.34,2.46,1.32,5.47-0.06,8.09l0,0C492.31,244.63,490,246.66,487.25,247.91z"/>
			</g>
			<path class="st7" d="M490.48,230.8c-1.18-1.39-2.76-5.14-4.24-4.09c-1.08,0.77-7.03,2.91-8.38,3.58
				c-3.23,1.58-7.78,3.23-10.02-1.77c-4.69-10.46,24.83-12.72,26.11-10.01c1.36,2.9,1.98,7.95,1.92,11.39
				c-0.04,1.99-0.43,3.95-1.16,5.8l0,0L490.48,230.8z"/>
			<path class="st9" d="M493.93,229.55c-1.03-0.28-2.32,0.5-2.88,1.75c-0.56,1.25-0.17,2.49,0.86,2.77c1.03,0.28,2.32-0.5,2.88-1.75
				C495.35,231.07,494.96,229.83,493.93,229.55z"/>
		</g>
		<g>
			<path class="st7" d="M535.23,458.48c0,0-0.03,6.48-13.05,10.38c-2.67,0.8-1.8,1.59-2.3,2.71c4.28,0,14.99,0,14.99,0l5.87-6.6
				l1.82,1.57l4.23-4.16c0,0-1.98-6.02-5.2-6.07C538.93,457.22,535.23,458.48,535.23,458.48z"/>
			<path class="st9" d="M532.8,452.86l2.43,5.61l0,0c2.22,0.63,4.6-0.09,6.09-1.85l0.27-0.32l-1.97-5.77L532.8,452.86z"/>
		</g>
		<path class="st3" d="M503.59,244.66c29.03-3.19,55.68,51.11,55.68,51.11l-35.09,24.63c0,0-37.88-34.68-31.73-65.34
			C493.54,249.6,498.05,245.27,503.59,244.66z"/>
		<g>
			<path class="st7" d="M556.19,461.66c0,0-4.18,3.87-13.7,6.3c-2.1,0.53-4.36-0.18-4.36,3.28c4.45,0,11.56,0,11.56,0l9.61-1.66
				v1.66h5.19c0,0,1.45-8.49-1.59-9.58C560.09,461.66,556.19,461.66,556.19,461.66z"/>
			<path class="st9" d="M557.21,455.56l-1.02,6.1l0,0c1.89,1.31,4.38,1.4,6.36,0.21l0.36-0.21l-0.52-6.1H557.21z"/>
		</g>
		<path class="st7" d="M524.18,320.4c0,0-19.23,34.92-16.7,53.39c2.53,18.47,26.91,82.4,26.91,82.4l6.07-2.78
			c0,0-0.73-48.45-6.98-66.38c-1.48-4.24,0.65-11.66,2.61-15.69c8.74-17.98,19.72-47.65,19.72-47.65l-17.73-13.04L524.18,320.4z"/>
		<path class="st9" d="M495.02,264.06c0,0-15.71,15.86-25.83,23.28c-8.26,6.06-25.74,12.34-31.88,14.11c-1.4,0.4-2.9,0.25-4.19-0.42
			l-3.91-2.04c-1.21-0.63-2.58-0.88-3.93-0.71l-15.13,1.88c0,0,3.52,4.73,11.36,1.91c1.94,3.5,1.95,5.66,5.26,6.69
			c1.2,0.38,2.48,0.44,3.73,0.27c8.56-1.17,29.7-5.17,44.1-11.24c18.43-7.76,37.11-23.28,37.11-23.28L495.02,264.06z"/>
		<path class="st11" d="M532.44,314.6l23.71,144.12h7.08c0,0,8.24-57.69,3.15-84.5c4.76-39.42,5.66-65.56-7.11-78.45L532.44,314.6z"
			/>
	</g>
</g>
<linearGradient id="SVGID_5_" gradientUnits="userSpaceOnUse" x1="361.7715" y1="313.5143" x2="418.1548" y2="313.5143">
	<stop  offset="0" style="stop-color:#E4EFEA"/>
	<stop  offset="1" style="stop-color:#CAE3EE"/>
</linearGradient>
<polygon class="st17" points="405.54,300.31 361.77,300.31 374.72,326.72 418.15,326.72 "/>
<path class="st0" d="M386.14,313.51c0,0.84,0.68,1.53,1.53,1.53c0.84,0,1.53-0.68,1.53-1.53c0-0.84-0.68-1.53-1.53-1.53
	C386.82,311.99,386.14,312.67,386.14,313.51z"/>
<g>
	<g>
		<path class="st3" d="M124.74,202.36l-14.91-0.08c0,0,1.14-4.54,0.71-8.02c-0.16-1.32-0.96-2.48-2.08-3.18
			c-14.62-9.14-11.03-19.58-11.03-19.58s1.59-13.25,20.38-14.43c20.03-1.26,18.73,16.53,18.73,16.53s0.86,9.91-9.57,16.57
			c-1.49,0.95-2.44,2.56-2.66,4.32C123.74,198.9,124.74,202.36,124.74,202.36z"/>
		<path class="st1" d="M109.83,202.24l-0.03,5.34c-0.01,2,1.29,3.65,2.89,3.65l9.08,0.05c1.6,0.01,2.91-1.62,2.93-3.62l0.03-5.34
			L109.83,202.24z"/>
		<polygon class="st2" points="113.62,211.25 114.64,213.69 120.28,213.72 121.53,211.29 		"/>
		<g>
			<path class="st0" d="M115.01,181.09c0.19,0,0.4-0.01,0.61-0.02l-0.11,21.16l1.02,0.01l0.12-21.24c0.73-0.08,1.49-0.21,2.25-0.39
				c0.01,0.4,0.02,0.79,0.01,1.16c-0.03,2.33-0.06,4.67-0.1,7c-0.06,4.5-0.13,8.99-0.19,13.49l1.02,0.01
				c0.1-7.32,0.2-14.63,0.31-21.95c1.29-0.41,2.49-0.99,3.3-1.76c3.48-3.29-2.45-6.9-4.03-2.28c-0.36,1.04-0.38,2.29-0.35,3.5
				c-0.67,0.19-1.55,0.4-2.34,0.53c0,0,0.03-1.95,0.01-3.21c-0.01-0.71-0.22-1.42-0.7-1.95c-2.62-2.9-8.21-0.84-5.96,3.39
				C110.84,180.37,113.07,181.08,115.01,181.09z M119.98,177.95c-0.01-0.51,0.75-4.58,3.26-2.31c0.26,0.24,0.41,0.6,0.37,0.95
				c-0.2,1.43-2.23,2.39-3.67,2.86C119.93,178.95,119.93,178.45,119.98,177.95z M111.16,174.84c1.69-0.85,3.06-0.04,3.82,0.72
				c0.43,0.43,0.66,1.01,0.66,1.61l-0.02,3.25c-1.9,0.15-3.73-0.34-4.88-2.05C109.97,177.21,110.1,175.49,111.16,174.84z"/>
		</g>
	</g>
	<g>
		<path class="st8" d="M136.89,153.53c-0.31-0.31-0.3-0.81,0.01-1.12l7.57-7.49c0.31-0.31,0.81-0.3,1.12,0.01
			c0.31,0.31,0.3,0.81-0.01,1.12l-7.57,7.49C137.7,153.85,137.2,153.84,136.89,153.53z"/>
	</g>
	<g>
		<path class="st8" d="M103.66,153.35c0.31-0.31,0.31-0.81,0.01-1.12l-7.49-7.57c-0.31-0.31-0.81-0.31-1.12-0.01
			c-0.31,0.31-0.31,0.81-0.01,1.12l7.49,7.57C102.85,153.66,103.35,153.66,103.66,153.35z"/>
	</g>
	<g>
		<path class="st8" d="M117.91,150.67c-0.44,0-0.79-0.36-0.78-0.79l0.06-10.65c0-0.44,0.36-0.79,0.79-0.78
			c0.44,0,0.79,0.36,0.78,0.79l-0.06,10.65C118.7,150.32,118.34,150.67,117.91,150.67z"/>
	</g>
</g>
<g>
	<g>
		<g>
			<path class="st6" d="M480.22,205.58l10.34-0.06c0,0-0.79-3.15-0.49-5.56c0.11-0.91,0.67-1.72,1.44-2.21
				c10.14-6.34,7.65-13.58,7.65-13.58s-1.1-9.19-14.13-10.01c-13.89-0.87-12.99,11.46-12.99,11.46s-0.6,6.87,6.63,11.49
				c1.03,0.66,1.69,1.78,1.85,3C480.92,203.18,480.22,205.58,480.22,205.58z"/>
			<path class="st1" d="M490.57,205.5l0.02,3.7c0.01,1.39-0.89,2.53-2,2.53l-6.3,0.03c-1.11,0.01-2.02-1.12-2.03-2.51l-0.02-3.7
				L490.57,205.5z"/>
			<linearGradient id="SVGID_6_" gradientUnits="userSpaceOnUse" x1="482.4492" y1="212.6012" x2="487.9333" y2="212.6012">
				<stop  offset="0" style="stop-color:#CAE3EE"/>
				<stop  offset="1" style="stop-color:#E4EFEA"/>
			</linearGradient>
			<polygon class="st18" points="487.93,211.74 487.23,213.44 483.31,213.46 482.45,211.77 			"/>
			<g>
				<path class="st8" d="M490.53,189.06c1.56-2.94-2.32-4.37-4.14-2.35c-0.33,0.36-0.48,0.86-0.48,1.35
					c-0.01,0.87,0.01,2.22,0.01,2.22c-0.55-0.09-1.16-0.23-1.62-0.37c0.02-0.84,0-1.71-0.24-2.43c-1.09-3.2-5.2-0.7-2.79,1.58
					c0.56,0.53,1.39,0.93,2.29,1.22c0.07,5.07,0.14,10.15,0.21,15.22l0.71,0c-0.04-3.12-0.09-6.24-0.13-9.35
					c-0.02-1.62-0.05-3.24-0.07-4.85c0-0.25,0-0.52,0.01-0.8c0.53,0.13,1.06,0.22,1.56,0.27l0.08,14.73l0.71,0l-0.08-14.67
					c0.14,0.01,0.29,0.01,0.42,0.01C488.31,190.82,489.86,190.33,490.53,189.06z M483.56,189.69c-1-0.33-2.41-0.99-2.55-1.99
					c-0.03-0.24,0.07-0.49,0.25-0.66c1.74-1.58,2.27,1.25,2.26,1.6C483.56,189,483.56,189.35,483.56,189.69z M489.93,188.95
					c-0.79,1.19-2.07,1.53-3.38,1.42l-0.01-2.26c0-0.42,0.16-0.82,0.46-1.12c0.53-0.53,1.48-1.09,2.65-0.5
					C490.38,186.95,490.47,188.14,489.93,188.95z"/>
			</g>
		</g>
		<g>
			<path class="st8" d="M471.8,171.72c0.21-0.21,0.21-0.56,0-0.77l-5.25-5.19c-0.21-0.21-0.56-0.21-0.77,0
				c-0.21,0.21-0.21,0.56,0,0.77l5.25,5.19C471.24,171.94,471.58,171.94,471.8,171.72z"/>
		</g>
		<g>
			<path class="st8" d="M494.84,171.6c-0.21-0.21-0.22-0.56,0-0.77l5.19-5.25c0.21-0.21,0.56-0.22,0.77,0
				c0.21,0.21,0.22,0.56,0,0.77l-5.19,5.25C495.41,171.81,495.06,171.81,494.84,171.6z"/>
		</g>
		<g>
			<g>
				<path class="st8" d="M484.96,169.73c0.3,0,0.55-0.25,0.54-0.55l-0.04-7.38c0-0.3-0.25-0.55-0.55-0.54
					c-0.3,0-0.55,0.25-0.54,0.55l0.04,7.38C484.41,169.49,484.66,169.73,484.96,169.73z"/>
			</g>
		</g>
	</g>
</g>
</svg>
